<?xml version="1.0" encoding="utf-8"?>
<!-- Generator: Adobe Illustrator 24.3.0, SVG Export Plug-In . SVG Version: 6.00 Build 0)  -->
<svg version="1.1" id="Layer_1" xmlns="http://www.w3.org/2000/svg" xmlns:xlink="http://www.w3.org/1999/xlink" x="0px" y="0px"
	 viewBox="0 0 59 54.6" style="enable-background:new 0 0 59 54.6;" xml:space="preserve">
<style type="text/css">
	.st0{fill:#FFFFFF;}
	.st1{fill:#81CCE4;}
	.st2{fill:#1A1818;}
	.st3{fill:#FFC36F;}
	.st4{fill:#462121;}
</style>
<g id="lcc-moble-logo" transform="translate(-201.53 -91.862)">
	<g id="Group_103" transform="translate(201.53 96.221)">
		<g id="Group_102" transform="translate(0 0)">
			<path id="Path_132" class="st0" d="M56.3,2.9C52.6-0.9,46.6-1,42.9,2.7l-3.2,3.1c-2.7-1.7-5.8-2.6-9-2.8l-1.4-1.6l0,1.1L26.9,1
				l0.6,2c-2.9,0.3-5.7,1.2-8.2,2.8l-3.2-3.1C12.4-1,6.4-0.9,2.7,2.9C-1,6.6-0.9,12.6,2.9,16.3l7,6.9c0.1,4.7,2,9.2,5.2,12.7
				c0.3,0.4,0.7,0.7,1,1s0.7,0.7,1.1,1l0,0c0,0.2,0,0.3,0,0.5c0,0.2,0,0.3,0,0.5l0,0.3c0,0.1,0,0.2,0,0.3s0,0.2,0,0.3s0,0.2,0.1,0.3
				c0,0.1,0.1,0.3,0.1,0.4s0.1,0.3,0.1,0.4c0,0.1,0.1,0.2,0.1,0.3s0.1,0.2,0.1,0.2c0.7,1.6,1.9,2.9,3.4,3.8c0.3,0.6,0.7,1.2,1.1,1.7
				c0.2,0.3,0.4,0.5,0.6,0.7c3.5,3.6,9.2,3.7,12.7,0.2c0.1-0.1,0.1-0.1,0.2-0.2c0.1-0.1,0.3-0.3,0.4-0.5c0.2-0.2,0.4-0.5,0.6-0.8
				c0.2-0.3,0.3-0.5,0.5-0.8c0.1-0.1,0.1-0.3,0.2-0.4c0.9-0.5,1.7-1.1,2.3-1.9c0.3-0.4,0.6-0.9,0.9-1.3l0-0.1c0-0.1,0.1-0.1,0.1-0.2
				l0.1-0.2c0-0.1,0.1-0.1,0.1-0.2c0-0.1,0.1-0.2,0.1-0.3s0.1-0.3,0.1-0.4c0.1-0.3,0.1-0.5,0.2-0.8l0-0.1c0-0.1,0-0.2,0-0.4
				c0,0,0,0,0,0l0-0.3c0-0.2,0-0.3,0-0.5c0-0.2,0-0.3,0-0.5l0,0c0.4-0.3,0.8-0.7,1.1-1s0.7-0.7,1-1c3.2-3.5,5.1-8,5.2-12.7l7-6.9
				C59.9,12.6,60,6.6,56.3,2.9L56.3,2.9z M35.4,46.3c-0.1,0.2-0.3,0.3-0.4,0.4c-3,3.1-7.9,3.1-11,0.2c-0.1-0.1-0.1-0.1-0.2-0.2
				c-0.2-0.2-0.3-0.4-0.5-0.6c-0.1-0.1-0.1-0.2-0.2-0.3c0.7,0.2,1.4,0.2,2.1,0.2c0,0,0,0,0,0c0.1,0,0.1,0.1,0.2,0.1
				c0.1,0.1,0.3,0.1,0.4,0.2c0.1,0,0.2,0.1,0.3,0.1s0.2,0.1,0.3,0.1l0.2,0.1c0.1,0,0.2,0.1,0.4,0.1l0.2,0.1c0.2,0,0.4,0.1,0.6,0.1
				c0.1,0,0.2,0,0.2,0l0.1,0c0.3,0,0.5,0.1,0.8,0.1c0.1,0,0.2,0,0.2,0c0.1,0,0.2,0,0.3,0s0.2,0,0.3,0c0.1,0,0.2,0,0.2,0
				c0.1,0,0.3,0,0.4,0l0,0c0.1,0,0.3,0,0.4,0l0.1,0c0.1,0,0.2,0,0.2,0c0.5-0.1,1-0.2,1.4-0.3c0.1,0,0.1,0,0.2-0.1
				c0.1,0,0.2-0.1,0.3-0.1c0.1-0.1,0.3-0.1,0.4-0.2c0.1,0,0.1-0.1,0.2-0.1c0,0,0,0,0,0c0.7,0,1.4,0,2.1-0.2
				C35.7,45.9,35.6,46.1,35.4,46.3L35.4,46.3z M55.3,15.4l-6.5,6.3c-0.3-1.1-0.8-2.2-1.3-3.3c0.3,1.4,0.4,2.9,0.4,4.3c0,0,0,0,0,0.1
				C47.8,27.4,46,31.7,43,35c-0.3,0.3-0.6,0.7-1,1c-0.2,0.2-0.5,0.4-0.8,0.7c-0.6-1.1-1.4-1.9-2.5-2.6c0.9,1,1.4,2.2,1.6,3.5
				c0,0,0,0,0,0c0,0,0,0.1,0,0.1c0,0.2,0,0.5,0,0.7c0,0.1,0,0.3,0,0.4l0,0.3c0,0.1,0,0.2,0,0.3c0,0,0,0,0,0l0,0.1
				c0,0.2-0.1,0.4-0.1,0.6c0,0.1-0.1,0.2-0.1,0.3s-0.1,0.2-0.1,0.3c0,0,0,0.1-0.1,0.1l-0.1,0.2c0,0,0,0.1-0.1,0.1l0,0.1
				c-0.2,0.4-0.4,0.8-0.7,1.1c-0.6,0.7-1.3,1.3-2.1,1.7c-0.9,0.4-1.8,0.6-2.8,0.6c-0.2,0-0.3,0-0.5,0c-0.6,0-1.2-0.2-1.7-0.4
				c-0.1,0-0.1-0.1-0.2-0.1l-0.1-0.1c0,0-0.1,0-0.1,0c0,0,0,0,0,0c0,0,0,0,0,0c0,0-0.1,0-0.1-0.1l-0.1,0c-0.2-0.1-0.3-0.2-0.5-0.3
				c0.5-0.2,0.9-0.5,1.4-0.9c0.1,0,0.1-0.1,0.2-0.1s0.1-0.1,0.2-0.2c0,0,0.1-0.1,0.1-0.1c0.1-0.1,0.1-0.1,0.2-0.2
				c0,0,0.1-0.1,0.1-0.2s0.1-0.1,0.1-0.2c0.3-0.3,0.5-0.6,0.8-1c0.1-0.1,0.2-0.3,0.2-0.4s0.1-0.3,0.2-0.4s0.1-0.3,0.2-0.5
				c0-0.1,0.1-0.2,0.1-0.3c0-0.1,0-0.1,0.1-0.2l0,0c0,0,0-0.1,0-0.1c0-0.1,0.1-0.2,0.1-0.3c0,0,0,0,0-0.1c0,0,0,0,0,0c0,0,0,0,0,0v0
				c0.2-0.9,0.3-1.7,0.2-2.6c-0.3,0.7-0.7,1.4-1.2,2l0,0c-2.7,1.7-6.1,1.7-8.7,0l0,0c-0.5-0.6-0.9-1.3-1.2-2c-0.1,0.9,0,1.8,0.2,2.6
				c0,0,0,0,0,0c0,0,0,0,0,0c0,0,0,0.1,0,0.1l0,0c0,0,0,0,0,0c0,0,0,0,0,0c0,0,0,0,0,0.1c0,0.1,0,0.2,0.1,0.3c0,0,0,0.1,0,0.1
				s0,0.1,0,0.1c0,0,0,0,0,0c0.1,0.2,0.1,0.3,0.2,0.5s0.1,0.3,0.2,0.5s0.1,0.3,0.2,0.4s0.2,0.3,0.2,0.4s0.2,0.3,0.3,0.4c0,0,0,0,0,0
				c0,0.1,0.1,0.1,0.1,0.2c0.6,0.8,1.4,1.5,2.2,2c0.1,0,0.1,0.1,0.2,0.1s0.1,0.1,0.2,0.1c0,0,0.1,0,0.1,0c-0.2,0.1-0.3,0.2-0.5,0.3
				l-0.1,0c0,0-0.1,0-0.1,0c0,0,0,0,0,0l0,0c0,0-0.1,0-0.1,0l-0.1,0c-0.1,0-0.1,0.1-0.2,0.1c-0.6,0.2-1.1,0.3-1.7,0.4
				c-0.2,0-0.3,0-0.5,0c-1,0-1.9-0.2-2.8-0.6c-1.4-0.7-2.5-1.8-3.1-3.2c0,0,0-0.1-0.1-0.1c0-0.1-0.1-0.2-0.1-0.3s-0.1-0.2-0.1-0.3
				s-0.1-0.2-0.1-0.3l0,0c0-0.1,0-0.1,0-0.2c0,0,0,0,0,0c0-0.1,0-0.1,0-0.2s0-0.2,0-0.2l0-0.3c0-0.1,0-0.3,0-0.4c0-0.2,0-0.5,0-0.7
				c0,0,0-0.1,0-0.1v0c0.2-1.3,0.7-2.5,1.6-3.5c-1,0.6-1.9,1.5-2.5,2.6c-0.3-0.2-0.5-0.4-0.8-0.7c-0.3-0.3-0.7-0.6-1-1
				c-3.1-3.3-4.8-7.6-4.9-12.1c0,0,0-0.1,0-0.1c0-1.5,0.1-2.9,0.4-4.3c-0.5,1-1,2.1-1.3,3.3l-6.5-6.3C0.5,12.2,0.6,6.9,3.8,3.7
				C6.9,0.6,12,0.6,15.2,3.6l3.1,3c-0.6,0.6-1.2,1.3-1.8,2c-0.3-0.3-0.5-0.5-0.8-0.8c-0.3-0.3-0.7-0.6-1-0.9l-0.3-0.2l-0.3-0.3
				l-0.3-0.2L13.6,6c-0.4-0.3-0.9-0.5-1.4-0.6c-1-0.3-2-0.2-2.9,0.1C8.3,5.7,7.5,6.3,7,7.1c0.7-0.5,1.6-0.8,2.4-1
				c1.2-0.2,2.5,0,3.6,0.7l0.2,0.2l0.2,0.2l0.2,0.2l0.2,0.2c0.3,0.3,0.6,0.7,1,1c0.3,0.3,0.6,0.6,0.9,0.9c-0.5,0.7-0.9,1.5-1.3,2.3
				c1.4-1.9,3.1-3.5,5-4.7c0,0,0,0,0,0c6.1-3.9,13.8-3.9,19.9,0l0,0c1.9,1.2,3.6,2.8,5,4.7c-0.4-0.8-0.8-1.5-1.3-2.3
				c0.3-0.3,0.6-0.6,0.9-0.9c0.3-0.3,0.6-0.6,1-1l0.2-0.2l0.2-0.2l0.2-0.2L46,6.9c1-0.7,2.3-1,3.6-0.7c0.9,0.2,1.7,0.5,2.4,1
				c-0.5-0.8-1.3-1.4-2.3-1.7c-1-0.3-2-0.3-2.9-0.1c-0.5,0.1-1,0.3-1.4,0.6l-0.3,0.2l-0.3,0.2l-0.3,0.3l-0.3,0.2
				c-0.3,0.3-0.7,0.6-1,0.9c-0.3,0.2-0.5,0.5-0.8,0.8c-0.5-0.7-1.1-1.4-1.8-2l3.1-3c3.3-3.2,8.5-3.1,11.7,0.1
				c1.5,1.5,2.3,3.5,2.3,5.6l0,0C57.8,11.6,56.9,13.8,55.3,15.4L55.3,15.4z"/>
		</g>
	</g>
	<g id="Group_119" transform="translate(201.531 91.862)">
		<g id="Group_114" transform="translate(1.251 0)">
			<g id="Group_104" transform="translate(1.725)">
				<path id="Path_135" class="st1" d="M14.1,6.1l2.5,2.4c2-1.1,4.1-1.8,6.3-2.2l-0.2-0.5l-1-3.2l2.9,1.7L25,4.6l0.1-2.1l2.2,2.4
					l1.1,1.2c2.9,0.3,5.7,1.1,8.2,2.5L39,6.1c0.7-0.7,1.4-1.2,2.2-1.7c-8.9-5.9-20.5-5.9-29.4,0C12.6,4.9,13.4,5.5,14.1,6.1z"/>
				<path id="Path_136" class="st1" d="M47.4,28.1c-0.3,4.8-2.2,9.4-5.5,13c-0.4,0.4-0.7,0.8-1.1,1.1c-0.2,0.2-0.5,0.4-0.7,0.7
					c0,0.2,0,0.3,0,0.5v0l0,0.3v0l0,0.1c0,0.1,0,0.3-0.1,0.4l0,0.1v0v0c-0.1,0.3-0.1,0.6-0.2,0.9c0,0.1-0.1,0.3-0.1,0.4
					c-0.1,0.2-0.1,0.3-0.1,0.4c0,0.1-0.1,0.2-0.1,0.3l-0.1,0.2l0,0l0,0c0,0.1-0.1,0.1-0.1,0.2l0,0l0,0l0,0c-0.3,0.6-0.6,1.1-1,1.6
					c-0.7,0.8-1.5,1.5-2.4,2l0,0.1c-0.2,0.3-0.4,0.6-0.6,0.9c-0.1,0.1-0.2,0.2-0.2,0.3c12.2-4,19.7-16.2,18-28.9L47.4,28.1z"/>
				<path id="Path_137" class="st1" d="M17.4,50.4c-1.6-1-2.9-2.4-3.6-4.2c0-0.1-0.1-0.2-0.1-0.3s-0.1-0.2-0.1-0.3
					c-0.1-0.1-0.1-0.3-0.1-0.4l0-0.1v0v0l0,0c0-0.1-0.1-0.3-0.1-0.4c0-0.1,0-0.2-0.1-0.3c0-0.1,0-0.2-0.1-0.3v0c0-0.1,0-0.2,0-0.3v0
					l0-0.3v0c0-0.2,0-0.3,0-0.5c-0.3-0.2-0.5-0.4-0.7-0.7c-0.4-0.3-0.7-0.7-1.1-1.1c-3.3-3.6-5.2-8.2-5.5-13l-5.4-5.3
					c-1.8,12.7,5.8,24.9,18,28.9C17.9,51.3,17.6,50.8,17.4,50.4z"/>
			</g>
			<g id="Group_113" transform="translate(0 5.608)">
				<g id="Group_105" transform="translate(22.915 37.231)">
					<path id="Path_138" class="st2" d="M1.4,3C1.4,3,1.4,3.1,1.4,3C1.4,3.1,1.4,3.1,1.4,3c0.1,0.1,0.1,0.2,0.1,0.2
						c0.1,0.1,0.1,0.1,0.2,0.2C1.8,3.5,1.9,3.6,2,3.7c0.1,0.1,0.1,0.1,0.2,0.2S2.3,4,2.3,4.1c0.1,0.1,0.3,0.2,0.4,0.4
						c0.1,0,0.1,0.1,0.2,0.1s0.1,0.1,0.2,0.1c0.1,0.1,0.2,0.1,0.2,0.2c0.1,0,0.1,0.1,0.2,0.1c0,0,0,0,0.1,0C2.8,4.5,2,3.8,1.4,3z
						 M1.2,2.8C1.3,2.9,1.3,3,1.4,3l0,0C1.3,3,1.3,2.9,1.2,2.8L1.2,2.8z M0,0C0,0,0,0,0,0C0,0,0,0,0,0L0,0C0,0.1,0,0.1,0,0L0,0L0,0
						C0,0.1,0,0,0,0L0,0z M0,0.1C0,0.1,0,0.1,0,0.1L0,0.1L0,0.1z M10.7,0.1C10.7,0.1,10.7,0.1,10.7,0.1C10.7,0.1,10.7,0.1,10.7,0.1
						c0,0.2-0.1,0.3-0.1,0.4C10.6,0.4,10.6,0.3,10.7,0.1C10.7,0.1,10.7,0.1,10.7,0.1C10.7,0.1,10.7,0.1,10.7,0.1L10.7,0.1z M8.9,3.4
						c0.3-0.3,0.5-0.6,0.8-1C9.5,2.8,9.2,3.1,8.9,3.4L8.9,3.4z M1.4,3C1.4,3,1.4,3,1.4,3C1.4,3.1,1.4,3.1,1.4,3
						c0.1,0.1,0.1,0.2,0.1,0.2c0.1,0.1,0.1,0.1,0.2,0.2C1.8,3.5,1.9,3.6,2,3.7c0.1,0.1,0.1,0.1,0.2,0.2S2.3,4,2.3,4.1
						c0.1,0.1,0.3,0.2,0.4,0.4c0.1,0,0.1,0.1,0.2,0.1s0.1,0.1,0.2,0.1c0.1,0.1,0.2,0.1,0.2,0.2c0.1,0,0.1,0.1,0.2,0.1c0,0,0,0,0.1,0
						C2.8,4.5,2,3.8,1.4,3L1.4,3z M1.2,2.8C1.3,2.9,1.3,3,1.4,3l0,0C1.3,3,1.3,2.9,1.2,2.8L1.2,2.8z M0,0.2C0,0.1,0,0.1,0,0.2
						C0,0.1,0,0.1,0,0.2C0,0.1,0,0.1,0,0.2L0,0.2C0,0.1,0,0,0,0c0,0,0,0,0,0C0,0,0,0.1,0,0.2L0,0.2C0,0.1,0,0.1,0,0.2L0,0.2L0,0.2
						L0,0.2C0,0.1,0,0.1,0,0.2c0,0.1,0,0.1,0.1,0.2c0,0,0,0,0,0C0.1,0.4,0,0.3,0,0.2L0,0.2z"/>
				</g>
				<g id="Group_106" transform="translate(22.919 37.317)">
					<path id="Path_139" class="st2" d="M0.1,0.4c0,0,0-0.1,0-0.1c0-0.1,0-0.2-0.1-0.2c0,0,0,0,0-0.1v0l0,0l0,0l0,0c0,0,0,0,0,0
						c0,0,0,0,0,0c0,0,0,0,0,0.1C0,0.2,0.1,0.3,0.1,0.4C0.1,0.4,0.1,0.4,0.1,0.4z"/>
				</g>
				<g id="Group_107" transform="translate(24.158 40.066)">
					<path id="Path_140" class="st2" d="M2.4,2.2C2.4,2.2,2.3,2.1,2.4,2.2C2.3,2.1,2.2,2,2.1,2C2.1,2,2,1.9,1.9,1.9
						c-0.1,0-0.1-0.1-0.2-0.1S1.6,1.6,1.5,1.6C1.4,1.5,1.2,1.3,1.1,1.2C1,1.2,1,1.1,0.9,1.1S0.8,1,0.8,0.9C0.7,0.8,0.6,0.7,0.5,0.6
						C0.4,0.5,0.3,0.4,0.3,0.4c0,0-0.1-0.1-0.1-0.1c0,0,0,0,0,0l0,0C0.1,0.1,0,0.1,0,0c0,0.1,0.1,0.1,0.1,0.2C0.8,1,1.5,1.7,2.4,2.2
						z"/>
				</g>
				<g id="Group_108" transform="translate(31.571 40.825)">
					<path id="Path_141" class="st2" d="M0,0.2C0,0.2,0,0.2,0,0.2c0.1,0,0.1-0.1,0.1-0.1C0.1,0,0.1,0.1,0,0.2z"/>
				</g>
				<g id="Group_109" transform="translate(22.915 37.231)">
					<path id="Path_142" class="st2" d="M0,0.1L0,0.1C0,0.1,0,0,0,0.1C0,0,0,0,0,0.1C0,0,0,0.1,0,0.1C0,0.1,0,0.1,0,0.1z"/>
				</g>
				<g id="Group_110">
					<path id="Path_143" class="st3" d="M54.2,2.5C51-0.8,45.8-0.8,42.5,2.3l-3.1,3c0.6,0.6,1.2,1.3,1.8,2c0.3-0.3,0.5-0.5,0.8-0.8
						c0.3-0.3,0.7-0.6,1-0.9l0.3-0.2l0.3-0.3l0.3-0.2l0.3-0.2c0.4-0.3,0.9-0.5,1.4-0.6c1-0.3,2-0.2,2.9,0.1c0.9,0.3,1.7,0.9,2.3,1.7
						c-0.7-0.5-1.6-0.8-2.4-1c-1.2-0.2-2.5,0-3.6,0.7l-0.2,0.2L44.3,6l-0.2,0.2l-0.2,0.2c-0.3,0.3-0.6,0.7-1,1
						c-0.3,0.3-0.6,0.6-0.9,0.9c0.5,0.7,0.9,1.5,1.3,2.3c-1.4-1.9-3.1-3.5-5-4.7l0,0c-6.1-3.9-13.8-3.9-19.9,0c0,0,0,0,0,0
						c-1.9,1.2-3.6,2.8-5,4.7c0.4-0.8,0.8-1.5,1.3-2.3C14.2,8,14,7.7,13.6,7.4c-0.3-0.3-0.6-0.6-1-1l-0.2-0.2L12.2,6L12,5.8
						l-0.2-0.2c-1-0.7-2.3-1-3.6-0.7c-0.9,0.2-1.7,0.5-2.4,1C6.2,5.1,7.1,4.4,8,4.2c1-0.3,2-0.3,2.9-0.1c0.5,0.1,1,0.3,1.4,0.6
						l0.3,0.2L13,5.1l0.3,0.3l0.3,0.2c0.3,0.3,0.7,0.6,1,0.9c0.3,0.2,0.5,0.5,0.8,0.8c0.5-0.7,1.1-1.4,1.8-2l-3.1-3
						c-3.3-3.1-8.5-3-11.7,0.3c-3,3.2-3,8.3,0.1,11.5L9,20.5c0.3-1.1,0.8-2.2,1.3-3.3c-0.3,1.4-0.4,2.9-0.4,4.4c0,0,0,0,0,0.1
						c0.1,4.5,1.8,8.8,4.9,12.1c0.3,0.3,0.6,0.7,1,1c0.2,0.2,0.5,0.4,0.8,0.7c0.6-1.1,1.4-1.9,2.5-2.6c-0.9,1-1.4,2.2-1.6,3.5v0
						c0,0,0,0.1,0,0.1c0,0.2,0,0.5,0,0.7c0,0.1,0,0.3,0,0.4l0,0.3c0,0.1,0,0.1,0,0.2s0,0.2,0,0.2c0,0,0,0,0,0c0,0.1,0,0.1,0,0.2l0,0
						c0,0.1,0.1,0.2,0.1,0.3s0.1,0.2,0.1,0.3s0.1,0.2,0.1,0.3c0,0.1,0,0.1,0.1,0.1c0.6,1.4,1.7,2.6,3.1,3.2c0.9,0.4,1.8,0.6,2.8,0.6
						c0.2,0,0.3,0,0.5,0c0.6,0,1.2-0.2,1.7-0.4c0.1,0,0.1-0.1,0.2-0.1l0.1,0c0,0,0.1,0,0.1,0l0,0c0,0,0,0,0,0c0,0,0.1,0,0.1,0l0.1,0
						c0.2-0.1,0.3-0.2,0.5-0.3c0,0-0.1,0-0.1,0c-0.1,0-0.1-0.1-0.2-0.1s-0.1-0.1-0.2-0.1c-0.9-0.5-1.6-1.2-2.2-2
						c0-0.1-0.1-0.1-0.1-0.2c0,0,0,0,0,0c-0.1-0.1-0.2-0.2-0.3-0.4s-0.2-0.3-0.2-0.4s-0.2-0.3-0.2-0.4s-0.1-0.3-0.2-0.5
						s-0.1-0.3-0.2-0.5c0,0,0,0,0,0c0,0,0-0.1,0-0.1s0-0.1,0-0.1c0-0.1,0-0.2-0.1-0.3c0,0,0,0,0-0.1c0,0,0,0,0,0c0,0,0,0,0,0l0,0
						c0,0,0-0.1,0-0.1c0,0,0,0,0,0c0,0,0,0,0,0c-0.2-0.9-0.3-1.7-0.2-2.6c0.3,0.7,0.7,1.4,1.2,2l0,0c2.7,1.7,6.1,1.7,8.7,0l0,0
						c0.5-0.6,0.9-1.3,1.2-2c0.1,0.9,0,1.8-0.2,2.6v0c0,0,0,0,0,0c0,0,0,0,0,0c0,0,0,0,0,0.1c0,0.1-0.1,0.2-0.1,0.3c0,0,0,0.1,0,0.1
						l0,0c0,0.1,0,0.1-0.1,0.2c0,0.1-0.1,0.2-0.1,0.3c-0.1,0.1-0.1,0.3-0.2,0.5s-0.1,0.3-0.2,0.4s-0.2,0.3-0.2,0.4
						c-0.2,0.4-0.5,0.7-0.8,1c0,0.1-0.1,0.1-0.1,0.2s-0.1,0.1-0.1,0.2c-0.1,0.1-0.1,0.1-0.2,0.2c0,0-0.1,0.1-0.1,0.1
						c-0.1,0.1-0.1,0.1-0.2,0.2s-0.1,0.1-0.2,0.1c-0.4,0.3-0.9,0.6-1.4,0.9c0.2,0.1,0.3,0.2,0.5,0.3l0.1,0c0,0,0.1,0,0.1,0.1
						c0,0,0,0,0,0c0,0,0,0,0,0c0,0,0.1,0,0.1,0l0.1,0.1c0.1,0,0.1,0.1,0.2,0.1c0.6,0.2,1.1,0.3,1.7,0.4c0.2,0,0.3,0,0.5,0
						c1,0,1.9-0.2,2.8-0.6c0.8-0.4,1.6-1,2.1-1.7c0.3-0.3,0.5-0.7,0.7-1.1l0-0.1c0,0,0-0.1,0.1-0.1l0.1-0.2c0,0,0-0.1,0.1-0.1
						c0-0.1,0.1-0.2,0.1-0.3s0.1-0.2,0.1-0.3c0.1-0.2,0.1-0.4,0.1-0.6l0-0.1c0,0,0,0,0,0c0-0.1,0-0.2,0-0.3l0-0.3c0-0.1,0-0.2,0-0.4
						c0-0.2,0-0.5,0-0.7c0,0,0-0.1,0-0.1c0,0,0,0,0,0c-0.2-1.3-0.7-2.5-1.6-3.5c1,0.6,1.9,1.5,2.5,2.6c0.3-0.2,0.5-0.4,0.8-0.7
						c0.3-0.3,0.7-0.6,1-1c3.1-3.3,4.8-7.6,4.9-12.1c0,0,0-0.1,0-0.1c0-1.5-0.1-2.9-0.4-4.4c0.5,1,1,2.1,1.3,3.3l6.5-6.3
						c1.6-1.6,2.5-3.8,2.5-6.1l0,0C56.5,6,55.6,4,54.2,2.5z M21.9,24.8c-1.2,1.4-3.3,1.5-4.7,0.3c-1.4-1.2-1.5-3.3-0.3-4.7
						c0.1-0.1,0.3-0.3,0.4-0.4l0.3,0l0.1,0c-0.4,0.6-0.6,1.3-0.6,2c0,1.6,1,2.9,2.2,2.9c1.2-0.2,2.2-1.2,2.2-2.5
						c0,0.1,0,0.1,0.1,0.2l0.1,0.2c0,0.1,0,0.1,0.1,0.2l0.1,0.2l0,0.2c0,0.1,0.1,0.3,0.1,0.4c0,0.1,0,0.3,0,0.4L21.9,24.8L21.9,24.8
						z M20.8,21.8c0.2,0.5-0.2,1.1-0.7,1.3c-0.5,0.2-1.1-0.2-1.3-0.7c0-0.2,0-0.4,0-0.5c0-0.6,0.3-1.1,0.8-1.3
						c0.4,0.2,0.7,0.4,1,0.7C20.7,21.3,20.8,21.6,20.8,21.8L20.8,21.8z M37,25.9c-0.9,0-1.8-0.4-2.5-1.1l0,0l0.1-0.5
						c0-0.2,0-0.3,0.1-0.4c0-0.1,0-0.3,0.1-0.4l0-0.2l0.1-0.2c0-0.1,0-0.1,0.1-0.2l0.1-0.2c0-0.1,0-0.1,0.1-0.2
						c0,1.3,0.9,2.3,2.2,2.5c1.2,0,2.2-1.3,2.2-2.9c0-0.7-0.2-1.4-0.6-2l0.1,0l0.3,0c1.4,1.1,1.7,3.2,0.5,4.7
						C39,25.5,38,25.9,37,25.9L37,25.9z M35.9,21.1c0.3-0.3,0.6-0.5,1-0.7c0.5,0.2,0.9,0.7,0.8,1.3c0.2,0.5-0.2,1.1-0.7,1.3
						c-0.5,0.2-1.1-0.2-1.3-0.7c0-0.2,0-0.4,0-0.5C35.7,21.6,35.8,21.3,35.9,21.1L35.9,21.1z"/>
					<path id="Path_144" class="st3" d="M32.5,44.7C32.5,44.7,32.5,44.7,32.5,44.7c-0.1,0-0.1,0.1-0.2,0.1c-0.1,0.1-0.3,0.1-0.4,0.2
						c-0.1,0-0.2,0.1-0.3,0.1c-0.1,0-0.1,0-0.2,0.1c-0.5,0.1-0.9,0.3-1.4,0.3c-0.1,0-0.2,0-0.2,0l-0.1,0c-0.1,0-0.3,0-0.4,0l0,0
						c-0.1,0-0.3,0-0.4,0c-0.1,0-0.2,0-0.2,0c-0.1,0-0.2,0-0.3,0s-0.2,0-0.3,0c-0.1,0-0.2,0-0.2,0c-0.3,0-0.5,0-0.8-0.1l-0.1,0
						c-0.1,0-0.2,0-0.2,0c-0.2,0-0.4-0.1-0.6-0.1l-0.2-0.1c-0.1,0-0.2-0.1-0.4-0.1l-0.2-0.1c-0.1,0-0.2-0.1-0.3-0.1S24.8,45,24.7,45
						c-0.1-0.1-0.3-0.1-0.4-0.2c-0.1,0-0.1-0.1-0.2-0.1c0,0,0,0,0,0c-0.7,0-1.4,0-2.1-0.2c0.1,0.1,0.1,0.2,0.2,0.3
						c0.2,0.2,0.4,0.4,0.5,0.6c3,3.1,7.9,3.1,11,0.2c0.1-0.1,0.1-0.1,0.2-0.2c0.1-0.1,0.2-0.2,0.4-0.4s0.3-0.3,0.4-0.5
						C33.9,44.7,33.2,44.7,32.5,44.7z"/>
				</g>
				<g id="Group_111" transform="translate(13.926 18.879)">
					<path id="Path_145" class="st4" d="M9.2,4.3l0-0.3c0-0.1,0-0.2-0.1-0.3S9,3.6,9,3.5L8.9,3.3c-0.5-1.4-1.6-2.4-3-3L5.7,0.2
						c-0.1,0-0.2,0-0.3-0.1s-0.2,0-0.3-0.1L4.9,0C4.8,0,4.7,0,4.6,0H4.3C4.1,0,4,0,3.8,0C2.5,0.1,1.3,0.3,0,0.6
						C0.6,0.8,1.3,0.9,1.9,1C0.4,3,0.8,5.8,2.8,7.4c1.6,1.2,3.8,1.3,5.5,0.1C8.3,8,8.4,8.6,8.6,9.2h0C8.8,8.4,8.9,7.6,9,6.7
						c0,0,0,0,0,0c0.1-0.4,0.1-0.9,0.1-1.3c0-0.2,0-0.3,0-0.5V4.6C9.2,4.5,9.2,4.4,9.2,4.3z M5.7,1.6c0.4,0.2,0.7,0.4,1,0.7
						c0.1,0.2,0.1,0.4,0.1,0.6C7,3.4,6.7,4,6.1,4.1C5.6,4.3,5,4,4.9,3.4c0-0.2,0-0.4,0-0.5C4.8,2.3,5.2,1.8,5.7,1.6L5.7,1.6z M8,6
						C6.8,7.3,4.7,7.5,3.3,6.2C2,5,1.8,2.9,3,1.6c0.1-0.1,0.3-0.3,0.4-0.4l0.3,0l0.1,0c-0.4,0.6-0.6,1.3-0.6,2c0,1.6,1,2.9,2.2,2.9
						c1.2-0.2,2.2-1.2,2.2-2.5c0,0.1,0,0.1,0.1,0.2l0.1,0.2c0,0.1,0,0.1,0.1,0.2l0.1,0.2l0,0.2c0,0.1,0.1,0.3,0.1,0.4
						c0,0.1,0,0.3,0,0.4L8,6L8,6z"/>
					<path id="Path_146" class="st0" d="M8.1,5.9L8.1,5.9C6.8,7.3,4.7,7.5,3.3,6.2C2,5,1.8,2.9,3,1.6c0.1-0.1,0.3-0.3,0.4-0.4l0.3,0
						l0.1,0c-0.4,0.6-0.6,1.3-0.6,2c0,1.6,1,2.9,2.2,2.9c1.2-0.2,2.2-1.2,2.2-2.5c0,0.1,0,0.1,0.1,0.2l0.1,0.2c0,0.1,0,0.1,0.1,0.2
						l0.1,0.2l0,0.2c0,0.1,0.1,0.3,0.1,0.4c0,0.1,0,0.3,0,0.4L8.1,5.9z"/>
					<path id="Path_147" class="st0" d="M6.8,2.9C7,3.4,6.7,4,6.1,4.1C5.6,4.3,5,4,4.9,3.4c0-0.2,0-0.4,0-0.5c0-0.6,0.3-1.1,0.8-1.3
						c0.4,0.2,0.7,0.4,1,0.7C6.8,2.5,6.8,2.7,6.8,2.9z"/>
				</g>
				<g id="Group_112" transform="translate(33.397 18.879)">
					<path id="Path_148" class="st4" d="M9.2,0.6C7.9,0.3,6.7,0.1,5.4,0C5.2,0,5,0,4.9,0H4.6C4.5,0,4.4,0,4.3,0l-0.3,0
						c-0.1,0-0.2,0-0.3,0.1s-0.2,0-0.3,0.1L3.3,0.3c-1.4,0.6-2.4,1.6-3,3L0.2,3.5c0,0.1,0,0.2-0.1,0.3s0,0.2-0.1,0.3l0,0.3
						c0,0.1,0,0.2,0,0.3v0.3C0,5,0,5.2,0,5.4c0,0.4,0.1,0.9,0.1,1.3c0,0,0,0,0,0c0.1,0.8,0.2,1.6,0.4,2.4h0C0.7,8.6,0.8,8,0.9,7.4
						c2,1.5,4.9,1,6.4-1C8.5,4.8,8.5,2.6,7.3,1C7.9,0.9,8.5,0.8,9.2,0.6z M2.5,2.3c0.3-0.3,0.6-0.5,1-0.7C4,1.8,4.3,2.3,4.3,2.9
						C4.5,3.4,4.1,4,3.6,4.1C3,4.3,2.5,4,2.3,3.4c0-0.2,0-0.4,0-0.5C2.3,2.7,2.4,2.5,2.5,2.3L2.5,2.3z M3.6,7.1
						C2.7,7.1,1.8,6.7,1.2,6l0,0l0.1-0.5c0-0.2,0-0.3,0-0.4c0-0.1,0-0.3,0.1-0.4l0-0.2l0.1-0.2c0-0.1,0-0.1,0.1-0.2l0.1-0.2
						c0-0.1,0-0.1,0.1-0.2c0,1.3,0.9,2.3,2.2,2.5c1.2,0,2.2-1.3,2.2-2.9c0-0.7-0.2-1.4-0.6-2l0.1,0l0.3,0c1.4,1.1,1.7,3.2,0.5,4.7
						C5.6,6.6,4.6,7.1,3.6,7.1L3.6,7.1z"/>
					<path id="Path_149" class="st0" d="M7,3.7c0,1.8-1.5,3.3-3.3,3.3C2.7,7.1,1.8,6.7,1.2,6l0,0l0.1-0.5c0-0.2,0-0.3,0-0.4
						c0-0.1,0-0.3,0.1-0.4l0-0.2l0.1-0.2c0-0.1,0-0.1,0.1-0.2l0.1-0.2c0-0.1,0-0.1,0.1-0.2c0,1.3,0.9,2.3,2.2,2.5
						c1.2,0,2.2-1.3,2.2-2.9c0-0.7-0.2-1.4-0.6-2l0.1,0l0.3,0C6.5,1.8,7,2.7,7,3.7z"/>
					<path id="Path_150" class="st0" d="M4.3,2.9C4.5,3.4,4.1,4,3.6,4.1C3,4.3,2.5,4,2.3,3.4c0-0.2,0-0.4,0-0.5c0-0.2,0-0.4,0.1-0.6
						c0.3-0.3,0.6-0.5,1-0.7C4,1.8,4.3,2.3,4.3,2.9z"/>
				</g>
			</g>
		</g>
		<g id="Group_118" transform="translate(0 4.359)">
			<path id="Path_169" class="st4" d="M56.3,2.9C52.6-0.9,46.6-1,42.9,2.7l-3.2,3.1c-2.7-1.7-5.8-2.6-9-2.8l-1.4-1.6l0,1.1L26.9,1
				l0.6,2c-2.9,0.3-5.7,1.2-8.2,2.8l-3.2-3.1C12.4-1,6.4-0.9,2.7,2.9C-1,6.6-0.9,12.6,2.9,16.3l7,6.9c0.1,4.7,2,9.2,5.2,12.7
				c0.3,0.4,0.7,0.7,1,1s0.7,0.7,1.1,1l0,0c0,0.2,0,0.3,0,0.5c0,0.2,0,0.3,0,0.5l0,0.3c0,0.1,0,0.2,0,0.3s0,0.2,0,0.3s0,0.2,0.1,0.3
				c0,0.1,0.1,0.3,0.1,0.4s0.1,0.3,0.1,0.4c0,0.1,0.1,0.2,0.1,0.3s0.1,0.2,0.1,0.2c0.7,1.6,1.9,2.9,3.4,3.8c0.3,0.6,0.7,1.2,1.1,1.7
				c0.2,0.3,0.4,0.5,0.6,0.7c3.5,3.6,9.2,3.7,12.7,0.2c0.1-0.1,0.1-0.1,0.2-0.2c0.1-0.1,0.3-0.3,0.4-0.5c0.2-0.2,0.4-0.5,0.6-0.8
				c0.2-0.3,0.3-0.5,0.5-0.8c0.1-0.1,0.1-0.3,0.2-0.4c0.9-0.5,1.7-1.1,2.3-1.9c0.3-0.4,0.6-0.9,0.9-1.3l0-0.1c0-0.1,0.1-0.1,0.1-0.2
				l0.1-0.2c0-0.1,0.1-0.1,0.1-0.2c0-0.1,0.1-0.2,0.1-0.3s0.1-0.3,0.1-0.4c0.1-0.3,0.1-0.5,0.2-0.8l0-0.1c0-0.1,0-0.2,0-0.4
				c0,0,0,0,0,0l0-0.3c0-0.2,0-0.3,0-0.5c0-0.2,0-0.3,0-0.5l0,0c0.4-0.3,0.8-0.7,1.1-1s0.7-0.7,1-1c3.2-3.5,5.1-8,5.2-12.7l7-6.9
				C59.9,12.6,60,6.6,56.3,2.9L56.3,2.9z M35.4,46.3c-0.1,0.2-0.3,0.3-0.4,0.4c-3,3.1-7.9,3.1-11,0.2c-0.1-0.1-0.1-0.1-0.2-0.2
				c-0.2-0.2-0.3-0.4-0.5-0.6c-0.1-0.1-0.1-0.2-0.2-0.3c0.7,0.2,1.4,0.2,2.1,0.2c0,0,0,0,0,0c0.1,0,0.1,0.1,0.2,0.1
				c0.1,0.1,0.3,0.1,0.4,0.2c0.1,0,0.2,0.1,0.3,0.1s0.2,0.1,0.3,0.1l0.2,0.1c0.1,0,0.2,0.1,0.4,0.1l0.2,0.1c0.2,0,0.4,0.1,0.6,0.1
				c0.1,0,0.2,0,0.2,0l0.1,0c0.3,0,0.5,0.1,0.8,0.1c0.1,0,0.2,0,0.2,0c0.1,0,0.2,0,0.3,0s0.2,0,0.3,0c0.1,0,0.2,0,0.2,0
				c0.1,0,0.3,0,0.4,0l0,0c0.1,0,0.3,0,0.4,0l0.1,0c0.1,0,0.2,0,0.2,0c0.5-0.1,1-0.2,1.4-0.3c0.1,0,0.1,0,0.2-0.1
				c0.1,0,0.2-0.1,0.3-0.1c0.1-0.1,0.3-0.1,0.4-0.2c0.1,0,0.1-0.1,0.2-0.1c0,0,0,0,0,0c0.7,0,1.4,0,2.1-0.2
				C35.7,45.9,35.6,46.1,35.4,46.3L35.4,46.3z M55.3,15.4l-6.5,6.3c-0.3-1.1-0.8-2.2-1.3-3.3c0.3,1.4,0.4,2.9,0.4,4.3c0,0,0,0,0,0.1
				C47.8,27.4,46,31.7,43,35c-0.3,0.3-0.6,0.7-1,1c-0.2,0.2-0.5,0.4-0.8,0.7c-0.6-1.1-1.4-1.9-2.5-2.6c0.9,1,1.4,2.2,1.6,3.5
				c0,0,0,0,0,0c0,0,0,0.1,0,0.1c0,0.2,0,0.5,0,0.7c0,0.1,0,0.3,0,0.4l0,0.3c0,0.1,0,0.2,0,0.3c0,0,0,0,0,0l0,0.1
				c0,0.2-0.1,0.4-0.1,0.6c0,0.1-0.1,0.2-0.1,0.3s-0.1,0.2-0.1,0.3c0,0,0,0.1-0.1,0.1l-0.1,0.2c0,0,0,0.1-0.1,0.1l0,0.1
				c-0.2,0.4-0.4,0.8-0.7,1.1c-0.6,0.7-1.3,1.3-2.1,1.7c-0.9,0.4-1.8,0.6-2.8,0.6c-0.2,0-0.3,0-0.5,0c-0.6,0-1.2-0.2-1.7-0.4
				c-0.1,0-0.1-0.1-0.2-0.1l-0.1-0.1c0,0-0.1,0-0.1,0c0,0,0,0,0,0c0,0,0,0,0,0c0,0-0.1,0-0.1-0.1l-0.1,0c-0.2-0.1-0.3-0.2-0.5-0.3
				c0.5-0.2,0.9-0.5,1.4-0.9c0.1,0,0.1-0.1,0.2-0.1s0.1-0.1,0.2-0.2c0,0,0.1-0.1,0.1-0.1c0.1-0.1,0.1-0.1,0.2-0.2
				c0,0,0.1-0.1,0.1-0.2s0.1-0.1,0.1-0.2c0.3-0.3,0.5-0.6,0.8-1c0.1-0.1,0.2-0.3,0.2-0.4s0.1-0.3,0.2-0.4s0.1-0.3,0.2-0.5
				c0-0.1,0.1-0.2,0.1-0.3c0-0.1,0-0.1,0.1-0.2l0,0c0,0,0-0.1,0-0.1c0-0.1,0.1-0.2,0.1-0.3c0,0,0,0,0-0.1c0,0,0,0,0,0c0,0,0,0,0,0v0
				c0.2-0.9,0.3-1.7,0.2-2.6c-0.3,0.7-0.7,1.4-1.2,2l0,0c-2.7,1.7-6.1,1.7-8.7,0l0,0c-0.5-0.6-0.9-1.3-1.2-2c-0.1,0.9,0,1.8,0.2,2.6
				c0,0,0,0,0,0c0,0,0,0,0,0c0,0,0,0.1,0,0.1l0,0c0,0,0,0,0,0c0,0,0,0,0,0c0,0,0,0,0,0.1c0,0.1,0,0.2,0.1,0.3c0,0,0,0.1,0,0.1
				s0,0.1,0,0.1c0,0,0,0,0,0c0.1,0.2,0.1,0.3,0.2,0.5s0.1,0.3,0.2,0.5s0.1,0.3,0.2,0.4s0.2,0.3,0.2,0.4s0.2,0.3,0.3,0.4c0,0,0,0,0,0
				c0,0.1,0.1,0.1,0.1,0.2c0.6,0.8,1.4,1.5,2.2,2c0.1,0,0.1,0.1,0.2,0.1s0.1,0.1,0.2,0.1c0,0,0.1,0,0.1,0c-0.2,0.1-0.3,0.2-0.5,0.3
				l-0.1,0c0,0-0.1,0-0.1,0c0,0,0,0,0,0l0,0c0,0-0.1,0-0.1,0l-0.1,0c-0.1,0-0.1,0.1-0.2,0.1c-0.6,0.2-1.1,0.3-1.7,0.4
				c-0.2,0-0.3,0-0.5,0c-1,0-1.9-0.2-2.8-0.6c-1.4-0.7-2.5-1.8-3.1-3.2c0,0,0-0.1-0.1-0.1c0-0.1-0.1-0.2-0.1-0.3s-0.1-0.2-0.1-0.3
				s-0.1-0.2-0.1-0.3l0,0c0-0.1,0-0.1,0-0.2c0,0,0,0,0,0c0-0.1,0-0.1,0-0.2s0-0.2,0-0.2l0-0.3c0-0.1,0-0.3,0-0.4c0-0.2,0-0.5,0-0.7
				c0,0,0-0.1,0-0.1v0c0.2-1.3,0.7-2.5,1.6-3.5c-1,0.6-1.9,1.5-2.5,2.6c-0.3-0.2-0.5-0.4-0.8-0.7c-0.3-0.3-0.7-0.6-1-1
				c-3.1-3.3-4.8-7.6-4.9-12.1c0,0,0-0.1,0-0.1c0-1.5,0.1-2.9,0.4-4.3c-0.5,1-1,2.1-1.3,3.3l-6.5-6.3C0.5,12.2,0.6,6.9,3.8,3.7
				C7,0.6,12,0.6,15.2,3.6l3.1,3c-0.6,0.6-1.2,1.3-1.8,2c-0.3-0.3-0.5-0.5-0.8-0.8c-0.3-0.3-0.7-0.6-1-0.9l-0.3-0.2l-0.3-0.3
				l-0.3-0.2L13.6,6c-0.4-0.3-0.9-0.5-1.4-0.6c-1-0.3-2-0.2-2.9,0.1C8.3,5.7,7.5,6.3,7,7.1c0.7-0.5,1.6-0.8,2.4-1
				c1.2-0.2,2.5,0,3.6,0.7l0.2,0.2l0.2,0.2l0.2,0.2l0.2,0.2c0.3,0.3,0.6,0.7,1,1c0.3,0.3,0.6,0.6,0.9,0.9c-0.5,0.7-0.9,1.5-1.3,2.3
				c1.4-1.9,3.1-3.5,5-4.7c0,0,0,0,0,0c6.1-3.9,13.8-3.9,19.9,0l0,0c1.9,1.2,3.6,2.8,5,4.7c-0.4-0.8-0.8-1.5-1.3-2.3
				c0.3-0.3,0.6-0.6,0.9-0.9c0.3-0.3,0.6-0.6,1-1l0.2-0.2l0.2-0.2l0.2-0.2L46,6.9c1-0.7,2.3-1,3.6-0.7c0.9,0.2,1.7,0.5,2.4,1
				c-0.5-0.8-1.3-1.4-2.3-1.7c-1-0.3-2-0.3-2.9-0.1c-0.5,0.1-1,0.3-1.4,0.6l-0.3,0.2l-0.3,0.2l-0.3,0.3l-0.3,0.2
				c-0.3,0.3-0.7,0.6-1,0.9c-0.3,0.2-0.5,0.5-0.8,0.8c-0.5-0.7-1.1-1.4-1.8-2l3.1-3c3.3-3.2,8.5-3.1,11.7,0.1
				c1.5,1.5,2.3,3.5,2.3,5.6l0,0C57.8,11.6,56.9,13.8,55.3,15.4L55.3,15.4z"/>
		</g>
	</g>
</g>
</svg>
