<?xml version="1.0" encoding="UTF-8"?>
<svg xmlns="http://www.w3.org/2000/svg" width="300" height="288.13" viewBox="0 0 300 288.13">
  <defs>
    <style>
      .cls-1 {
        fill: #592e2c;
      }

      .cls-1, .cls-2, .cls-3, .cls-4 {
        stroke-width: 0px;
      }

      .cls-2 {
        fill: #96d4e8;
      }

      .cls-3 {
        fill: #fff;
      }

      .cls-4 {
        fill: #fdcf85;
      }
    </style>
  </defs>
  <g id="Background">
    <path id="Background-2" data-name="Background" class="cls-3" d="m283.26,166.61h-90.52c27.44-15.1,46.04-44.29,46.04-77.83,0-3.82-.24-7.58-.71-11.27h0c6.02-7.23,9.19-16.25,9-25.8-.1-5.04-1.16-9.94-3.08-14.48,0-.01,0-.02-.01-.03-.02-.04-.04-.08-.05-.12-1.67-4.54-4.28-8.81-7.86-12.48-4.9-5.04-10.97-8.27-17.38-9.73-.03,0-.05-.02-.08-.02-.05-.01-.08-.03-.13-.03-3.42-.97-6.97-1.47-10.55-1.47-2.2,0-4.4.19-6.52.55-.95.16-1.89.35-2.82.57,0,0,0,0-.01,0-13.96-9.14-30.64-14.46-48.57-14.46-3.64,0-7.24.22-10.76.65h0s-.4.05-.4.05c-.08.01-.17.02-.25.03l-.23.03h0c-4.97.65-9.8,1.71-14.47,3.15h0s-.11.03-.11.03c-.17.05-.34.11-.51.16l-.96.3h0c-7.48,2.46-14.52,5.89-20.98,10.13,0,0,0,0-.01,0-1.02-.26-2.07-.48-3.12-.65-2.16-.36-4.36-.55-6.54-.55-4.68,0-9.29.86-13.63,2.48-.06.02-.12.04-.19.06-.04.02-.08.04-.13.05-5.07,1.7-9.83,4.58-13.86,8.66-3.25,3.21-5.73,6.9-7.46,10.84-.02.04-.05.09-.07.13,0,.01-.01.03-.02.04-2.38,4.98-3.7,10.45-3.81,16.08-.21,9.76,3.1,18.97,9.39,26.28h0c-.43,3.55-.66,7.15-.66,10.82,0,33.54,18.6,62.73,46.04,77.83H16.74c-9.25,0-16.74,7.49-16.74,16.74v88.04c0,9.25,7.49,16.74,16.74,16.74h266.52c9.25,0,16.74-7.49,16.74-16.74v-88.04c0-9.25-7.49-16.74-16.74-16.74Z"/>
  </g>
  <g id="Icon">
    <g id="Icon-2" data-name="Icon">
      <g>
        <path class="cls-2" d="m113.76,30.08l7.17,7.01c5.76-3.16,11.89-5.33,18.33-6.48l-.49-1.51-3.03-9.34,8.48,4.94,1.47.86.18-6.09,6.25,6.93,3.15,3.49c8.33.73,16.48,3.2,23.8,7.21l7.17-7.01c1.97-1.92,4.16-3.56,6.5-4.88-12.23-8.17-26.93-12.94-42.75-12.94s-30.52,4.77-42.75,12.94c2.35,1.33,4.54,2.96,6.51,4.88Z"/>
        <path class="cls-2" d="m210.62,93.86c-.8,14.06-6.46,27.41-16.04,37.74-1.03,1.12-2.12,2.2-3.23,3.24-.69.65-1.4,1.28-2.15,1.91,0,.48-.02.93-.05,1.37v.02s0,.02,0,.02l-.07.86v.09l-.02.21c-.04.36-.09.78-.17,1.21l-.02.15v.06s-.02.06-.02.06c-.18,1.02-.37,1.87-.61,2.68-.12.44-.25.84-.37,1.21-.15.45-.29.84-.41,1.13-.08.22-.19.48-.32.77l-.26.61-.02.06-.03.06c-.1.22-.2.42-.31.63l-.06.12-.02.04-.02.04c-.81,1.58-1.81,3.12-2.98,4.57-1.89,2.33-4.25,4.36-6.88,5.92-.03.06-.07.13-.1.19-.45.87-1,1.79-1.64,2.73-.22.33-.45.65-.68.98,30.73-10.13,52.91-39.07,52.91-73.2,0-3.66-.26-7.25-.75-10.77l-15.69,15.31Z"/>
        <path class="cls-2" d="m123.42,158.61c-2.63-1.56-4.98-3.58-6.86-5.9-1.53-1.88-2.78-3.96-3.73-6.19-.07-.16-.2-.44-.31-.76-.12-.32-.25-.67-.36-1.01-.15-.43-.27-.83-.37-1.19l-.04-.15v-.02s-.01-.02-.01-.02l-.03-.13c-.09-.34-.2-.73-.29-1.18-.07-.3-.14-.62-.2-.99-.06-.3-.11-.61-.15-.92v-.05c-.05-.27-.1-.6-.13-.94v-.02s0-.02,0-.02l-.07-.93v-.03s0-.03,0-.03c-.03-.47-.05-.92-.05-1.39-.75-.63-1.46-1.26-2.15-1.91-1.06-.98-2.14-2.06-3.23-3.23-9.58-10.34-15.24-23.7-16.04-37.75l-15.69-15.31c-.49,3.52-.75,7.12-.75,10.77,0,34.13,22.18,63.07,52.92,73.2-.91-1.25-1.73-2.55-2.43-3.9Z"/>
      </g>
      <path class="cls-1" d="m227.88,33.24c-6.32-6.48-15.42-9.45-24.34-7.93-5.55.92-10.62,3.5-14.67,7.45l-9.21,9c-7.93-4.86-16.89-7.68-26.17-8.25l-4.15-4.6-.09,3.06-6.92-4.03,1.87,5.76c-8.45.86-16.58,3.61-23.85,8.06l-9.21-9c-4.05-3.95-9.12-6.52-14.66-7.45-8.92-1.51-18.02,1.45-24.35,7.93-4.91,5.03-7.69,11.67-7.82,18.69-.16,7.71,2.79,14.92,8.31,20.32l20.45,19.96c.43,13.72,5.78,26.78,15.11,36.85.97,1.04,1.99,2.06,3.02,3.02,1.03.97,2.12,1.91,3.34,2.87.02.02.04.04.07.06-.04.49-.06.99-.06,1.5,0,.45.01.89.04,1.38l.07.93c.03.27.07.56.11.81.04.27.08.54.13.79.04.27.09.54.16.81.08.41.19.78.29,1.15.11.37.21.77.34,1.13.11.32.22.64.32.9.08.22.17.44.24.59.81,1.91,1.88,3.7,3.21,5.33,1.84,2.27,4.18,4.18,6.8,5.57.84,1.79,1.88,3.49,3.12,5.07.67.83,1.25,1.5,1.82,2.09,4.97,5.12,11.64,7.94,18.79,7.94s13.81-2.82,18.75-7.92c.41-.41.82-.86,1.29-1.41.62-.74,1.17-1.47,1.67-2.23.57-.84,1.05-1.64,1.43-2.39.19-.36.39-.74.58-1.15,2.62-1.39,4.96-3.3,6.81-5.57,1.01-1.25,1.86-2.56,2.55-3.91l.08-.17c.09-.18.18-.36.27-.54l.27-.64c.09-.21.19-.42.25-.59.12-.31.24-.62.35-.97.12-.36.23-.74.33-1.09.2-.67.36-1.4.51-2.27l.03-.22c.06-.34.11-.69.14-1.03,0-.02,0-.09,0-.11l.07-.93c.03-.45.04-.89.04-1.34,0-.51-.02-1.01-.06-1.5.02-.02.04-.04.07-.06,1.22-.96,2.31-1.9,3.32-2.86,1.05-.97,2.07-1.99,3.04-3.04,9.33-10.07,14.68-23.13,15.11-36.85l20.45-19.96c5.52-5.39,8.46-12.61,8.31-20.31-.14-7.02-2.92-13.66-7.82-18.69Zm-60.61,126.1c-.39.47-.73.84-1.08,1.19-4.29,4.41-10.03,6.84-16.19,6.84s-11.89-2.43-16.18-6.85c-.49-.51-1.01-1.09-1.58-1.81-.21-.26-.41-.52-.59-.8,1.97.45,4.02.63,6.13.49,0,0,.02,0,.03.01.2.09.4.17.6.25.41.17.82.33,1.24.48.24.09.48.18.73.25.28.09.56.19.84.27.17.05.34.1.51.15.34.09.69.19,1.03.27.22.05.44.1.66.15.56.12,1.12.23,1.68.32.22.04.44.07.66.1.1.01.19.03.29.04.76.1,1.52.17,2.3.21.22.01.44.02.67.03.32.01.66.02.99.02s.63,0,.95-.02c.24,0,.47-.01.7-.03.39-.02.77-.04,1.15-.08h0c.38-.03.76-.07,1.14-.12.08-.01.16-.02.24-.03.24-.03.47-.07.71-.11,1.39-.22,2.76-.54,4.11-.96.21-.06.41-.13.61-.2.25-.07.49-.16.73-.25.42-.15.83-.31,1.24-.48.2-.08.4-.16.6-.25,0,0,.02,0,.02-.01,2.1.14,4.15-.04,6.12-.49-.34.47-.7.94-1.09,1.41Zm57.6-89.7l-18.8,18.35c-1.01-3.3-2.32-6.47-3.89-9.46.91,4.21,1.29,8.46,1.18,12.64-.01.07-.02.14-.02.22-.24,13.11-5.27,25.6-14.16,35.2-.91.98-1.86,1.94-2.85,2.86-.69.65-1.41,1.28-2.19,1.92-1.77-3.14-4.29-5.72-7.16-7.47,2.63,2.95,4.24,6.56,4.71,10.13,0,.02,0,.04,0,.06,0,.08,0,.17.01.25.09.67.14,1.4.14,2.17,0,.37-.01.76-.03,1.09l-.07.89c-.02.27-.06.54-.11.81,0,.02,0,.05-.01.07l-.02.2c-.12.68-.26,1.28-.42,1.86-.09.32-.19.65-.29.94-.09.26-.18.52-.3.82-.04.12-.09.24-.16.37l-.29.66c-.06.13-.12.26-.19.39l-.09.17c-.58,1.13-1.27,2.2-2.12,3.26-1.66,2.04-3.8,3.74-6.19,4.92-2.5,1.22-5.19,1.84-8.01,1.84-.47,0-.96-.02-1.46-.07-1.73-.12-3.42-.51-5.03-1.12-.22-.08-.43-.17-.61-.25-.11-.05-.22-.1-.34-.15-.09-.04-.19-.08-.27-.12-.02-.01-.05-.02-.07-.03-.02-.01-.04-.02-.07-.04-.11-.04-.21-.1-.32-.15l-.22-.11c-.51-.27-.99-.54-1.45-.84,1.4-.69,2.73-1.52,3.96-2.51.17-.14.35-.28.52-.42.19-.17.39-.33.58-.51.12-.11.25-.22.37-.34.19-.18.38-.37.57-.56.14-.14.29-.29.42-.44.14-.16.28-.31.42-.46.8-.91,1.54-1.89,2.18-2.91.26-.41.51-.85.72-1.24.21-.41.42-.81.64-1.27.21-.46.39-.89.56-1.31.09-.24.18-.49.27-.75.07-.19.13-.39.19-.59,0-.02.01-.03.02-.05.04-.12.07-.24.11-.37.09-.31.18-.66.26-1,.01-.06.03-.11.03-.17,0,0,0-.02,0-.03,0-.01.01-.03.02-.04v-.02c.73-2.56.95-5.16.72-7.62-.84,2.25-2.05,4.26-3.51,5.92h-.01c-3.82,2.37-8.19,3.61-12.69,3.61s-8.86-1.24-12.68-3.61h-.01c-1.46-1.67-2.67-3.68-3.51-5.93-.22,2.46,0,5.05.72,7.61,0-.04,0-.08,0-.12,0-.03,0-.05,0-.07,0,.08,0,.16.01.24h0s0,.03.01.04c0,.01,0,.02,0,.03,0,.06.01.11.03.17.07.3.14.57.21.82.03.08.04.16.07.24.03.12.06.23.1.34,0,0,0,.01,0,.02.15.47.3.92.46,1.34.16.42.34.85.56,1.31.21.47.42.89.65,1.3.21.37.45.81.71,1.22.27.42.52.8.77,1.14,0,0,0,.01.01.02.14.19.28.38.42.57,1.79,2.32,4,4.26,6.53,5.71.16.09.34.19.51.28.18.1.36.19.55.29.07.04.16.08.23.12-.46.29-.94.57-1.46.84l-.22.11c-.1.05-.19.09-.29.14-.04.02-.07.03-.11.05-.02.01-.04.02-.07.03-.09.04-.18.08-.27.12-.11.05-.23.1-.31.14-.21.09-.42.18-.64.26-1.61.61-3.3.99-5.06,1.12-.47.04-.96.06-1.43.06-2.82,0-5.51-.62-8.01-1.84-2.39-1.18-4.53-2.87-6.19-4.91-1.11-1.36-2.01-2.86-2.71-4.51-.05-.11-.1-.23-.16-.4-.1-.25-.19-.51-.29-.81-.11-.3-.19-.61-.28-.92-.08-.31-.17-.61-.23-.92,0-.03-.01-.06-.02-.09-.04-.18-.08-.37-.11-.56,0-.03,0-.06-.01-.09-.04-.21-.07-.42-.11-.65-.03-.21-.06-.44-.08-.61l-.07-.86c-.02-.37-.04-.76-.04-1.13,0-.77.05-1.5.14-2.17,0-.08.01-.19.01-.27v-.04c.46-3.57,2.07-7.18,4.7-10.12-2.87,1.75-5.39,4.32-7.16,7.47-.77-.64-1.5-1.28-2.19-1.93-.98-.91-1.94-1.87-2.84-2.85-8.89-9.59-13.92-22.09-14.16-35.2,0-.07,0-.15-.02-.22-.11-4.17.27-8.42,1.18-12.64-1.57,2.99-2.87,6.16-3.89,9.46l-18.8-18.35c-4.79-4.68-7.35-10.94-7.21-17.64.12-6.09,2.53-11.86,6.79-16.23,5.49-5.62,13.39-8.2,21.14-6.88,4.81.81,9.22,3.04,12.73,6.46l8.89,8.69c-1.84,1.81-3.56,3.74-5.12,5.77-.76-.74-1.52-1.46-2.28-2.19-.97-.92-1.93-1.83-2.92-2.74l-.73-.67-.84-.73-.89-.66-.93-.6c-1.27-.76-2.64-1.34-4.06-1.71-2.84-.75-5.84-.65-8.56.19-2.73.82-5.18,2.57-6.57,4.95,2.32-1.44,4.64-2.48,7.09-2.94,2.43-.48,4.95-.27,7.22.53,1.13.41,2.2.96,3.17,1.64l.71.54.67.58.64.62.69.71c.92.96,1.87,1.91,2.81,2.84.87.88,1.74,1.76,2.63,2.61-1.42,2.1-2.68,4.29-3.78,6.54,4.02-5.49,8.99-10.14,14.54-13.69.04-.02.07-.04.11-.06,8.62-5.59,18.61-8.54,28.92-8.54s20.29,2.96,28.9,8.54c.04.02.09.05.13.07,5.54,3.54,10.51,8.19,14.52,13.68-1.1-2.26-2.36-4.44-3.78-6.54.89-.86,1.76-1.73,2.63-2.61.94-.94,1.88-1.88,2.81-2.84l.69-.71.64-.62.67-.58.71-.54c.97-.67,2.04-1.23,3.17-1.64,2.27-.8,4.79-1.01,7.22-.53,2.45.46,4.77,1.5,7.09,2.94-1.39-2.37-3.84-4.13-6.57-4.95-2.72-.84-5.72-.94-8.56-.19-1.42.36-2.79.94-4.06,1.71l-.93.6-.89.66-.84.73-.73.67c-.99.91-1.95,1.82-2.92,2.74-.76.72-1.52,1.45-2.28,2.19-1.57-2.02-3.28-3.96-5.12-5.77l8.89-8.69c3.51-3.43,7.92-5.66,12.74-6.47,7.75-1.32,15.65,1.26,21.14,6.88,4.26,4.37,6.67,10.14,6.79,16.23h0c.14,6.7-2.42,12.96-7.21,17.64Z"/>
      <path class="cls-1" d="m134.98,95.99l-.09-.79c-.06-.26-.12-.51-.18-.77-.07-.26-.12-.52-.2-.77l-.28-.74c-.77-1.97-1.97-3.75-3.46-5.23-1.47-1.49-3.26-2.69-5.22-3.47l-.74-.27c-.26-.08-.51-.13-.77-.2-.26-.06-.51-.13-.77-.18l-.79-.09c-.26-.02-.52-.07-.78-.07h-.79c-.55,0-1,.04-1.46.09-3.69.34-7.37.79-11.06,1.67,1.86.44,3.72.77,5.57,1.04-1.76,2.29-2.73,5.11-2.73,8.07,0,7.31,5.96,13.26,13.27,13.26,2.84,0,5.57-.91,7.83-2.55.25,1.69.55,3.39.94,5.09h.04c.54-2.37.92-4.74,1.21-7.11,0-.04.01-.08.01-.12.16-1.27.29-2.56.41-3.83.05-.46.1-.91.09-1.46v-.79c0-.26-.04-.52-.06-.78Zm-10.02-7.89c1.07.46,2.07,1.1,2.96,1.89.22.54.36,1.16.36,1.81,0,2.07-1.28,3.75-2.86,3.75s-2.86-1.67-2.86-3.75c0-1.87,1.04-3.42,2.4-3.71Zm6.74,12.59c-1.83,2.04-4.45,3.21-7.19,3.21-5.32,0-9.64-4.32-9.64-9.63,0-2.94,1.32-5.69,3.62-7.53.32.03.64.06.97.09.09,0,.19.02.28.03-1.12,1.49-1.81,3.54-1.81,5.81,0,4.57,2.82,8.29,6.31,8.29,3.2,0,5.85-3.14,6.25-7.21.08.17.14.34.2.52l.2.55c.06.19.11.38.16.57l.16.57.12.58c.09.39.14.77.19,1.17.06.37.1.84.14,1.31.05.52.1,1.05.15,1.57l-.09.11Z"/>
      <path class="cls-1" d="m191.62,85.16c-3.69-.87-7.37-1.32-11.06-1.67-.46-.05-.91-.1-1.46-.09h-.79c-.26,0-.52.04-.78.06l-.79.09c-.26.05-.52.12-.77.18-.26.07-.51.12-.77.2l-.74.27c-1.97.77-3.75,1.98-5.22,3.47-1.48,1.48-2.68,3.26-3.46,5.23l-.27.74c-.08.25-.13.51-.2.77-.06.26-.13.51-.18.77l-.09.79c-.02.26-.07.52-.07.78v.79c0,.55.04,1,.09,1.46.12,1.27.25,2.56.41,3.83,0,.04,0,.08.01.12.29,2.37.67,4.74,1.21,7.11h.04c.39-1.69.69-3.39.94-5.09,2.26,1.64,4.99,2.55,7.83,2.55,7.32,0,13.27-5.95,13.27-13.26,0-2.96-.97-5.77-2.73-8.07,1.86-.26,3.72-.59,5.57-1.04Zm-19.53,4.83c.88-.79,1.89-1.43,2.96-1.89,1.36.29,2.4,1.84,2.4,3.71,0,2.07-1.28,3.75-2.86,3.75s-2.86-1.67-2.86-3.75c0-.66.13-1.27.36-1.81Zm3.41,13.91c-2.74,0-5.36-1.17-7.19-3.21l-.09-.11c.05-.52.1-1.05.15-1.57.04-.46.08-.94.14-1.31.04-.4.1-.79.19-1.17l.12-.58.16-.57c.06-.19.1-.38.16-.57l.2-.55c.06-.17.13-.35.2-.52.4,4.06,3.05,7.21,6.25,7.21,3.48,0,6.31-3.71,6.31-8.29,0-2.27-.69-4.31-1.81-5.81.09,0,.19-.02.28-.03.32-.03.65-.06.97-.09,2.29,1.85,3.61,4.59,3.61,7.53,0,5.31-4.32,9.63-9.64,9.63Z"/>
      <g>
        <path class="cls-3" d="m131.5,97.7c-.04-.4-.1-.79-.19-1.17l-.12-.58-.16-.57c-.06-.19-.1-.38-.16-.57l-.2-.55c-.06-.17-.12-.35-.2-.52-.4,4.06-3.05,7.21-6.25,7.21-3.48,0-6.31-3.71-6.31-8.29,0-2.27.69-4.31,1.81-5.81-.09,0-.19-.02-.28-.02-.32-.03-.64-.06-.97-.09-2.3,1.84-3.62,4.59-3.62,7.53,0,5.31,4.32,9.63,9.64,9.63,2.74,0,5.36-1.17,7.19-3.21l.09-.11c-.05-.52-.1-1.05-.15-1.57-.04-.46-.08-.94-.14-1.31Z"/>
        <path class="cls-3" d="m125.42,95.55c1.57,0,2.86-1.67,2.86-3.75,0-.66-.13-1.27-.36-1.81-.88-.79-1.89-1.43-2.96-1.89-1.36.29-2.4,1.84-2.4,3.71,0,2.07,1.28,3.75,2.86,3.75Z"/>
        <path class="cls-3" d="m174.59,95.55c1.57,0,2.86-1.67,2.86-3.75,0-1.87-1.04-3.42-2.4-3.71-1.07.46-2.07,1.1-2.96,1.89-.22.54-.36,1.16-.36,1.81,0,2.07,1.28,3.75,2.86,3.75Z"/>
        <path class="cls-3" d="m181.53,86.74c-.32.03-.65.06-.97.09-.09,0-.19.02-.28.02,1.12,1.49,1.81,3.54,1.81,5.81,0,4.57-2.82,8.29-6.31,8.29-3.2,0-5.85-3.14-6.25-7.21-.07.17-.14.34-.2.52l-.2.55c-.06.19-.11.38-.16.57l-.16.57-.12.58c-.09.39-.14.77-.19,1.17-.06.37-.1.84-.14,1.31-.05.52-.1,1.05-.15,1.57l.09.11c1.83,2.04,4.45,3.21,7.19,3.21,5.32,0,9.64-4.32,9.64-9.63,0-2.94-1.32-5.68-3.61-7.53Z"/>
      </g>
      <path class="cls-4" d="m162.23,158.42s-.02,0-.02.01c-.2.09-.4.17-.6.25-.41.17-.82.33-1.24.48-.24.09-.48.18-.73.25-.2.07-.41.14-.61.2-1.35.41-2.72.73-4.11.96-.24.04-.47.07-.71.11-.08.01-.16.02-.24.03-.38.05-.76.09-1.14.12h0c-.38.04-.76.06-1.15.08-.23.01-.46.03-.7.03-.32.01-.63.02-.95.02s-.66,0-.99-.02c-.22,0-.44-.01-.67-.03-.77-.04-1.54-.11-2.3-.21-.1-.01-.19-.03-.29-.04-.22-.03-.44-.06-.66-.1-.56-.09-1.12-.19-1.68-.32-.22-.05-.44-.1-.66-.15-.34-.08-.69-.17-1.03-.27-.17-.05-.34-.1-.51-.15-.28-.08-.56-.18-.84-.27-.25-.07-.49-.16-.73-.25-.42-.15-.83-.31-1.24-.48-.2-.08-.4-.16-.6-.25,0,0-.02,0-.03-.01-2.11.14-4.16-.04-6.13-.49.19.27.39.54.59.8.57.72,1.09,1.3,1.58,1.81,4.29,4.42,10.04,6.85,16.18,6.85s11.9-2.43,16.19-6.84c.35-.35.69-.72,1.08-1.19.39-.47.76-.94,1.09-1.41-1.97.44-4.02.62-6.12.49Z"/>
      <path class="cls-4" d="m225.28,35.77c-5.49-5.62-13.39-8.2-21.14-6.88-4.82.81-9.22,3.04-12.74,6.47l-8.89,8.69c1.84,1.81,3.56,3.74,5.12,5.77.76-.74,1.52-1.46,2.28-2.19.97-.92,1.93-1.83,2.92-2.74l.73-.67.84-.73.89-.66.93-.6c1.27-.76,2.64-1.34,4.06-1.71,2.84-.75,5.84-.65,8.56.19,2.73.82,5.18,2.57,6.57,4.95-2.32-1.44-4.64-2.48-7.09-2.94-2.43-.48-4.95-.27-7.22.53-1.13.41-2.2.96-3.17,1.64l-.71.54-.68.58-.64.62-.69.71c-.92.96-1.87,1.91-2.81,2.84-.87.88-1.74,1.76-2.63,2.61,1.42,2.1,2.68,4.29,3.78,6.54-4.01-5.49-8.98-10.14-14.52-13.68-.04-.02-.09-.05-.13-.08-8.62-5.59-18.61-8.54-28.9-8.54s-20.3,2.96-28.92,8.54c-.04.03-.07.04-.11.06-5.55,3.55-10.52,8.2-14.54,13.69,1.1-2.26,2.36-4.44,3.78-6.54-.89-.86-1.76-1.73-2.63-2.61-.94-.94-1.88-1.88-2.81-2.84l-.69-.71-.64-.62-.67-.58-.71-.54c-.97-.67-2.04-1.23-3.17-1.64-2.27-.8-4.79-1.01-7.22-.53-2.45.46-4.77,1.5-7.09,2.94,1.39-2.37,3.84-4.13,6.57-4.95,2.72-.84,5.72-.94,8.56-.19,1.42.36,2.79.94,4.06,1.71l.93.6.89.66.84.73.73.67c.99.91,1.95,1.82,2.92,2.74.76.72,1.52,1.45,2.28,2.19,1.57-2.02,3.28-3.96,5.12-5.77l-8.89-8.69c-3.51-3.42-7.92-5.66-12.73-6.46-7.76-1.32-15.66,1.26-21.14,6.88-4.26,4.37-6.67,10.14-6.79,16.23-.14,6.7,2.42,12.96,7.21,17.64l18.8,18.35c1.01-3.3,2.32-6.47,3.89-9.46-.91,4.21-1.29,8.46-1.18,12.64.01.07.02.14.02.22.24,13.11,5.27,25.6,14.16,35.2.91.98,1.86,1.94,2.84,2.85.69.65,1.42,1.29,2.19,1.93,1.77-3.14,4.29-5.72,7.16-7.47-2.63,2.94-4.24,6.55-4.7,10.12v.04c0,.08,0,.19-.01.27-.09.67-.14,1.4-.14,2.17,0,.37.01.76.04,1.13l.07.86c.02.17.05.4.08.61.03.23.06.44.11.65,0,.03.01.06.01.09.03.19.07.37.11.56,0,.03.01.06.02.09.06.31.15.62.23.92.09.32.17.62.28.92.1.29.19.56.29.81.06.17.11.29.16.4.69,1.64,1.6,3.14,2.71,4.51,1.66,2.04,3.79,3.73,6.19,4.91,2.5,1.22,5.19,1.84,8.01,1.84.47,0,.96-.02,1.43-.06,1.76-.13,3.46-.51,5.06-1.12.22-.08.43-.17.64-.26.09-.04.2-.09.31-.14.09-.04.19-.08.28-.13.02-.01.04-.02.07-.03.03-.02.07-.03.11-.05.1-.04.19-.09.29-.14l.22-.11c.51-.27,1-.55,1.46-.84-.07-.04-.16-.07-.23-.12-.19-.09-.37-.19-.55-.29-.17-.09-.34-.19-.51-.28-2.53-1.45-4.74-3.39-6.53-5.71-.14-.19-.29-.37-.42-.57,0,0,0-.01-.01-.02-.25-.34-.51-.72-.77-1.14-.26-.42-.51-.86-.71-1.22-.22-.41-.44-.83-.65-1.3-.21-.46-.39-.89-.56-1.31-.16-.42-.31-.87-.46-1.34,0,0,0-.01,0-.02-.04-.11-.07-.22-.1-.34-.02-.08-.04-.16-.07-.24-.07-.25-.14-.52-.21-.82-.01-.06-.03-.11-.03-.17,0,0,0-.02,0-.03,0,0,0-.01-.01-.02h0c-.01-.09-.02-.17-.01-.25,0,.03,0,.05,0,.07,0,.04,0,.09,0,.13-.72-2.56-.94-5.15-.72-7.61.84,2.25,2.05,4.26,3.51,5.92h.01c3.82,2.37,8.19,3.61,12.68,3.61s8.87-1.24,12.69-3.61h.01c1.46-1.67,2.67-3.68,3.51-5.93.22,2.46,0,5.06-.72,7.62v.02s-.01.03-.02.04c0,.01,0,.02,0,.03,0,.06-.01.11-.02.17-.08.34-.17.69-.26,1-.04.12-.07.25-.11.37,0,.02-.01.03-.02.05-.06.2-.12.4-.19.59-.09.26-.18.51-.27.75-.16.42-.34.86-.56,1.31-.22.46-.42.87-.64,1.27-.22.39-.46.83-.72,1.24-.64,1.02-1.38,2-2.18,2.91-.14.16-.27.31-.42.46-.14.14-.28.29-.42.44-.19.19-.37.37-.57.56-.12.11-.24.22-.37.34-.19.17-.39.34-.58.51-.17.14-.35.29-.52.42-1.22.98-2.56,1.82-3.96,2.51.46.29.94.57,1.45.84l.22.11c.11.05.21.11.32.15.03.01.06.02.08.04.02,0,.05.02.07.03.09.04.18.08.28.13.11.05.22.1.34.15.18.08.39.17.61.25,1.61.61,3.3.99,5.03,1.12.5.05.99.07,1.46.07,2.82,0,5.51-.62,8.01-1.84,2.39-1.18,4.53-2.87,6.19-4.92.85-1.06,1.54-2.12,2.12-3.26l.09-.17c.06-.13.13-.26.19-.39l.29-.66c.06-.13.11-.25.16-.37.12-.3.21-.56.3-.82.09-.29.2-.62.29-.94.17-.57.3-1.17.42-1.86l.03-.2s0-.04.01-.07c.05-.27.08-.54.11-.81l.08-.89c.02-.34.03-.72.03-1.09,0-.77-.05-1.5-.14-2.17-.01-.08-.01-.17-.01-.25,0-.02,0-.04,0-.06-.47-3.57-2.07-7.18-4.71-10.13,2.87,1.75,5.39,4.32,7.16,7.47.78-.64,1.5-1.27,2.19-1.92.99-.92,1.94-1.87,2.85-2.86,8.89-9.59,13.92-22.09,14.16-35.2,0-.07,0-.15.02-.22.11-4.17-.28-8.42-1.18-12.64,1.57,2.99,2.87,6.16,3.89,9.46l18.8-18.35c4.79-4.68,7.35-10.94,7.21-17.64h0c-.12-6.1-2.53-11.86-6.79-16.24Zm-90.24,61.78c.01.55-.04,1-.09,1.46-.12,1.27-.25,2.56-.41,3.83,0,.04,0,.08-.01.12-.29,2.37-.67,4.74-1.21,7.11h-.04c-.39-1.69-.69-3.39-.94-5.09-2.26,1.64-4.99,2.55-7.83,2.55-7.32,0-13.27-5.95-13.27-13.26,0-2.96.97-5.77,2.73-8.07-1.86-.26-3.72-.59-5.57-1.04,3.69-.87,7.37-1.32,11.06-1.67.46-.05.91-.1,1.46-.09h.79c.26,0,.52.04.78.06l.79.09c.26.05.52.12.77.18.26.07.51.12.77.2l.74.27c1.97.77,3.75,1.98,5.22,3.47,1.48,1.48,2.68,3.26,3.46,5.23l.28.74c.08.25.13.51.2.77.06.26.13.51.18.77l.09.79c.02.26.07.52.07.78v.79Zm51-11.36c1.76,2.29,2.73,5.11,2.73,8.07,0,7.31-5.96,13.26-13.27,13.26-2.84,0-5.57-.91-7.83-2.55-.25,1.69-.55,3.39-.94,5.09h-.04c-.54-2.37-.92-4.74-1.21-7.11,0-.04-.01-.08-.01-.12-.16-1.27-.29-2.56-.41-3.83-.05-.46-.1-.91-.09-1.46v-.79c0-.26.04-.52.06-.78l.09-.79c.06-.26.12-.51.18-.77.07-.26.12-.52.2-.77l.27-.74c.78-1.97,1.97-3.75,3.46-5.23,1.47-1.49,3.26-2.69,5.22-3.47l.74-.27c.26-.08.51-.13.77-.2.26-.06.51-.13.77-.18l.79-.09c.26-.02.52-.07.78-.07h.79c.55,0,1,.04,1.46.09,3.69.34,7.37.79,11.06,1.67-1.86.44-3.72.77-5.57,1.04Z"/>
    </g>
  </g>
  <g id="Text">
    <g id="Text-2" data-name="Text">
      <g>
        <path class="cls-1" d="m252.54,179.03c.97-.24,1.89-.06,2.75.52.86.58,1.42,1.4,1.67,2.44.17.7.17,1.36-.01,1.99-.14.48-.39,1.03-.73,1.64-.35.62-.61,1.15-.8,1.6l-.42.99c-.19.45-.49.78-.92,1-.43.21-.86.25-1.3.1-.44-.15-.81-.43-1.12-.83-.3-.41-.46-.81-.49-1.21-.02-.4-.12-.84-.29-1.31-.17-.47-.33-.86-.48-1.16-.19-.32-.33-.69-.44-1.11-.25-1.04-.13-2.02.36-2.94.5-.91,1.23-1.49,2.21-1.73Z"/>
        <g>
          <path class="cls-1" d="m35.22,229.08c0,.7-.24,1.29-.71,1.76-.48.48-1.06.71-1.76.71H14.73c-.7,0-1.29-.24-1.76-.71-.48-.48-.71-1.06-.71-1.76v-47.57c0-.7.24-1.29.71-1.76.47-.47,1.06-.71,1.76-.71h2.85c.7,0,1.29.24,1.76.71.47.48.71,1.06.71,1.76v40.97c0,.7.24,1.29.71,1.76.48.48,1.06.71,1.76.71h10.2c.7,0,1.29.24,1.76.71.47.48.71,1.06.71,1.76v1.65Z"/>
          <path class="cls-1" d="m50.43,230.76c-.48.48-1.06.71-1.76.71h-2.85c-.7,0-1.29-.24-1.76-.71-.48-.48-.71-1.06-.71-1.76v-47.57c0-.7.24-1.29.71-1.76.47-.47,1.06-.71,1.76-.71h2.85c.7,0,1.29.24,1.76.71.47.48.71,1.06.71,1.76v47.57c0,.7-.24,1.29-.71,1.76Z"/>
          <path class="cls-1" d="m72.04,231.48c-1.8,0-3.48-.34-5.03-1.01-1.55-.67-2.91-1.6-4.09-2.77-1.18-1.17-2.1-2.53-2.78-4.08-.68-1.55-1.01-3.22-1.01-5.02v-26.3c0-1.8.34-3.47,1.01-5.02.68-1.55,1.6-2.91,2.78-4.08,1.17-1.17,2.54-2.1,4.09-2.77,1.55-.67,3.23-1.01,5.03-1.01h3.08c1.8,0,3.48.34,5.03,1.01,1.55.68,2.91,1.6,4.09,2.77,1.17,1.17,2.1,2.53,2.78,4.08.68,1.55,1.01,3.22,1.01,5.02v26.3c0,1.8-.34,3.47-1.01,5.02-.68,1.55-1.6,2.91-2.78,4.08-1.18,1.17-2.54,2.1-4.09,2.77-1.55.68-3.23,1.01-5.03,1.01h-3.08Zm-5.1-12.84c0,1.4.49,2.59,1.46,3.57.98.98,2.16,1.47,3.56,1.47h3.08c1.4,0,2.59-.49,3.56-1.47.98-.98,1.46-2.17,1.46-3.57v-26.39c0-1.4-.49-2.59-1.46-3.57-.98-.98-2.16-1.47-3.56-1.47h-3.08c-1.4,0-2.59.49-3.56,1.47-.98.98-1.46,2.17-1.46,3.57v26.39Z"/>
          <path class="cls-1" d="m103.87,228.7c0,.7-.24,1.29-.72,1.76-.48.48-1.07.71-1.78.71h-2.88c-.71,0-1.3-.24-1.78-.71-.48-.47-.72-1.06-.72-1.76v-47.57c0-.7.24-1.29.71-1.76.47-.48,1.06-.71,1.76-.71h2.93c.7,0,1.38.22,2.03.67.65.45,1.1,1,1.35,1.65l10.73,26.71c.25.65.47.96.68.94.2-.02.3-.39.3-1.09v-26.33c0-.7.24-1.29.71-1.76.47-.48,1.06-.71,1.76-.71h2.85c.7,0,1.29.24,1.76.71.47.48.71,1.06.71,1.76v47.57c0,.75-.36,1.36-1.08,1.84-.72.48-1.57.74-2.54.79-.97.05-1.96-.12-2.95-.53-1-.4-1.77-1.1-2.32-2.1-.35-.65-.84-1.71-1.46-3.19-.62-1.47-1.31-3.16-2.06-5.06-.75-1.9-1.52-3.89-2.32-5.97-.8-2.07-1.53-3.99-2.21-5.74-.67-1.75-1.25-3.25-1.72-4.5-.47-1.25-.76-2.03-.86-2.33-.25-.65-.47-.96-.67-.94s-.3.39-.3,1.09l.07,26.56Z"/>
          <path class="cls-1" d="m162.7,231.56c-2.81.27-5.79-.06-8.15-1.09-1.54-.67-2.9-1.6-4.06-2.78-1.16-1.17-2.08-2.54-2.75-4.09-.67-1.55-1-3.23-1-5.03v-26.33c0-1.8.33-3.48,1-5.03.67-1.55,1.59-2.91,2.75-4.09,1.16-1.17,2.52-2.1,4.06-2.78,1.54-.68,3.22-1.01,5.02-1.01h3.08c1.4,0,2.75.21,4.05.64,1.3.43,2.49,1.04,3.56,1.84,1.07.8,2.01,1.74,2.81,2.81.8,1.08,1.43,2.24,1.88,3.49.25.65.17,1.21-.23,1.69-.4.48-.95.71-1.65.71h-3.08c-.7,0-1.39-.23-2.06-.68-.68-.45-1.29-.9-1.84-1.35-1-.9-2.15-1.35-3.45-1.35h-3.08c-1.4,0-2.59.49-3.56,1.46s-1.46,2.16-1.46,3.56v26.34c0,1.4.49,2.59,1.46,3.56.98.98,2.16,1.46,3.56,1.46h3.08c.85,0,1.61-.18,2.29-.53.68-.35,1.24-.83,1.69-1.43.4-.55.9-1.06,1.5-1.54.6-.48,1.25-.71,1.95-.71h2.93c.7,0,1.26.24,1.69.71.42.48.54,1.06.34,1.76-.4,1.4-.99,2.69-1.76,3.86-.78,1.18-1.71,2.19-2.81,3.04-1.1.85-2.33,1.51-3.68,1.99-1.24.43-2.63.73-4.07.87Z"/>
          <path class="cls-1" d="m195.94,231.4c-1.8,0-3.48-.34-5.03-1.01-1.55-.68-2.91-1.6-4.09-2.78-1.18-1.17-2.1-2.54-2.78-4.09-.68-1.55-1.01-3.23-1.01-5.03v-36.91c0-.7.24-1.29.71-1.76s1.06-.71,1.76-.71h2.85c.7,0,1.29.24,1.76.71.48.48.71,1.07.71,1.77v36.98c0,1.4.49,2.59,1.46,3.57.98.98,2.16,1.47,3.56,1.47h3.08c1.4,0,2.59-.49,3.56-1.47.98-.98,1.46-2.17,1.46-3.57v-36.98c0-.7.24-1.29.71-1.77.48-.48,1.06-.71,1.76-.71h2.85c.7,0,1.29.24,1.76.71.48.48.71,1.06.71,1.76v36.91c0,1.8-.34,3.48-1.01,5.03-.68,1.55-1.6,2.91-2.78,4.09s-2.54,2.1-4.09,2.78c-1.55.68-3.23,1.01-5.03,1.01h-2.93Z"/>
          <path class="cls-1" d="m238.28,231.29c-.95.07-1.78.11-2.48.11h-13.66c-.7,0-1.29-.24-1.76-.71-.48-.48-.71-1.06-.71-1.76v-47.57c0-.7.24-1.29.71-1.76.48-.48,1.06-.71,1.76-.71h13.21c1.7,0,3.3.33,4.8.98,1.5.65,2.81,1.54,3.94,2.66,1.13,1.13,2.01,2.44,2.66,3.94.65,1.5.98,3.1.98,4.8v1.13c0,1.3-.18,2.5-.52,3.6-.35,1.1-.83,2.15-1.43,3.15-.4.6-.56,1.23-.49,1.88.07.65.36,1.23.86,1.73,1.4,1.35,2.5,2.93,3.3,4.73.8,1.8,1.2,3.75,1.2,5.85v3.45c0,1.6-.25,3.14-.75,4.61-.5,1.48-1.19,2.81-2.06,4.01-.88,1.2-1.93,2.26-3.15,3.19-1.23.93-2.56,1.64-4.01,2.14,0,0-1.45.49-2.4.56Zm.83-24.01c-.69-.34-1.45-.48-2.26-.37-.92.13-6.16,1.89-6.91,2.14-.7.2-1.28.59-1.76,1.16-.47.58-.71,1.21-.71,1.91v9.23c0,.7.24,1.29.71,1.76.47.48,1.06.71,1.76.71h5.82c.95,0,1.84-.19,2.69-.56.85-.38,1.58-.87,2.2-1.5.62-.62,1.12-1.36,1.49-2.21.37-.85.56-1.75.56-2.7v-3.45c0-2.19-1.04-4.2-2.74-5.57-.27-.22-.56-.4-.86-.55Zm-9.09-20.44c-.7,0-1.28.24-1.75.71-.47.48-.71,1.06-.71,1.76v9.68c0,.7.22,1.23.67,1.58.45.35,1.02.4,1.72.15,1.24-.4,2.45-.86,3.62-1.39,1.17-.52,2.21-1.14,3.13-1.84.92-.7,1.67-1.47,2.24-2.33.57-.85.86-1.77.86-2.78v-1.13c0-1.25-.43-2.31-1.3-3.19-.87-.87-1.93-1.31-3.17-1.31l-5.29.07Z"/>
          <path class="cls-1" d="m271.84,223.67h3.08c1.35,0,2.5-.48,3.45-1.43s1.45-2.1,1.5-3.45c-.05-1.65-.31-3.04-.79-4.16-.48-1.13-1.1-2.09-1.88-2.89-.78-.8-1.71-1.5-2.81-2.1-1.1-.6-2.28-1.2-3.53-1.8-1.3-.6-2.65-1.3-4.05-2.1-1.4-.8-2.7-1.8-3.9-3-1.2-1.2-2.19-2.65-2.96-4.35-.78-1.7-1.16-3.78-1.16-6.23,0-1.8.34-3.48,1.01-5.03.68-1.55,1.6-2.91,2.78-4.09,1.17-1.17,2.54-2.1,4.09-2.78,1.55-.68,3.23-1.01,5.03-1.01h3.08c1.55,0,3.04.26,4.46.79,1.43.52,2.7,1.26,3.83,2.21,1.13.95,2.06,2.05,2.81,3.3.75,1.25,1.28,2.63,1.58,4.13.15.7,0,1.29-.45,1.76-.45.48-1.03.71-1.73.71h-2.85c-.7,0-1.3-.25-1.8-.76-.5-.51-.93-1.07-1.28-1.68-.4-.81-.99-1.46-1.76-1.94-.78-.48-1.66-.72-2.66-.72h-3.08c-1.4,0-2.59.5-3.56,1.49-.98.99-1.46,2.2-1.46,3.62,0,1.2.15,2.2.45,3,.3.8.77,1.51,1.43,2.13.65.62,1.44,1.21,2.36,1.76.92.55,2.04,1.12,3.34,1.72,1.25.6,2.59,1.3,4.01,2.1,1.43.8,2.76,1.77,4.01,2.92,1.25,1.15,2.35,2.55,3.3,4.19.95,1.65,1.58,3.67,1.88,6.07.05.35.09.66.11.94.02.27.04.54.04.79v1.57c0,.25-.03.5-.07.75-.05.25-.1.51-.15.79-.05.27-.13.59-.22.94-.35,1.4-.91,2.68-1.69,3.86-.78,1.17-1.71,2.2-2.81,3.07-1.1.87-2.33,1.55-3.68,2.02-1.35.47-2.78.71-4.28.71h-3.08c-1.6,0-3.1-.26-4.5-.79-1.4-.53-2.66-1.26-3.79-2.21-1.13-.95-2.06-2.05-2.81-3.3-.75-1.25-1.28-2.63-1.58-4.13-.15-.7,0-1.29.45-1.76.45-.48,1.02-.71,1.73-.71h2.85c.7,0,1.3.25,1.8.76.5.51.92,1.07,1.28,1.68.4.81.99,1.46,1.76,1.94.77.48,1.66.72,2.66.72h.23Z"/>
        </g>
      </g>
      <g>
        <path class="cls-1" d="m64.64,261.22H19.2c-.78,0-1.42-.64-1.42-1.42s.64-1.42,1.42-1.42h45.44c.78,0,1.42.64,1.42,1.42s-.64,1.42-1.42,1.42Z"/>
        <path class="cls-1" d="m280.8,261.22h-45.44c-.78,0-1.42-.64-1.42-1.42s.64-1.42,1.42-1.42h45.44c.78,0,1.42.64,1.42,1.42s-.64,1.42-1.42,1.42Z"/>
        <path class="cls-1" d="m88.95,275.86c-.48.03-.95.03-1.43.03-1.33-.02-2.61-.14-3.85-.68-1.01-.44-1.89-1.04-2.65-1.81s-1.36-1.66-1.79-2.67c-.44-1.01-.65-2.1-.65-3.28v-17.17c0-1.17.22-2.27.65-3.28.44-1.01,1.03-1.9,1.79-2.67.76-.77,1.64-1.37,2.65-1.81,1.01-.44,2.1-.66,3.27-.66h2.01c.91,0,1.79.14,2.64.42.85.28,1.62.68,2.32,1.2.7.52,1.31,1.13,1.83,1.83.52.7.93,1.46,1.22,2.27.16.42.11.79-.15,1.1-.26.31-.62.46-1.08.46h-2.01c-.46,0-.9-.15-1.34-.44-.44-.29-.84-.59-1.2-.88-.65-.59-1.4-.88-2.25-.88h-2.01c-.91,0-1.69.32-2.32.95-.64.64-.95,1.41-.95,2.32v17.17c0,.91.32,1.69.95,2.32.64.64,1.41.95,2.32.95h2.01c.55,0,1.05-.11,1.49-.34s.81-.54,1.1-.93c.26-.36.59-.69.98-1,.39-.31.81-.46,1.27-.46h1.91c.46,0,.82.15,1.1.46.28.31.35.69.22,1.15-.26.91-.64,1.75-1.15,2.52-.51.77-1.12,1.43-1.83,1.98-.72.55-1.52.99-2.4,1.3-.87.3-1.78.45-2.69.5Z"/>
        <path class="cls-1" d="m110.65,275.87c-1.17,0-2.27-.22-3.28-.66-1.01-.44-1.9-1.04-2.67-1.81-.77-.77-1.37-1.65-1.81-2.66-.44-1.01-.66-2.1-.66-3.27v-17.14c0-1.17.22-2.26.66-3.27.44-1.01,1.04-1.9,1.81-2.66.77-.76,1.65-1.37,2.67-1.81,1.01-.44,2.1-.66,3.28-.66h2.01c1.17,0,2.27.22,3.28.66,1.01.44,1.9,1.04,2.67,1.81.77.76,1.37,1.65,1.81,2.66.44,1.01.66,2.1.66,3.27v17.14c0,1.17-.22,2.26-.66,3.27-.44,1.01-1.04,1.9-1.81,2.66-.77.76-1.66,1.37-2.67,1.81-1.01.44-2.1.66-3.28.66h-2.01Zm-3.33-8.37c0,.92.32,1.69.95,2.33.64.64,1.41.96,2.32.96h2.01c.91,0,1.69-.32,2.32-.96.64-.64.95-1.41.95-2.33v-17.2c0-.91-.32-1.69-.95-2.33-.64-.64-1.41-.96-2.32-.96h-2.01c-.91,0-1.69.32-2.32.96-.64.64-.95,1.41-.95,2.33v17.2Z"/>
        <path class="cls-1" d="m134.7,275.87c-1.17,0-2.27-.22-3.28-.66-1.01-.44-1.9-1.04-2.67-1.81-.77-.77-1.37-1.65-1.81-2.66-.44-1.01-.66-2.1-.66-3.27v-17.14c0-1.17.22-2.26.66-3.27.44-1.01,1.04-1.9,1.81-2.66.77-.76,1.65-1.37,2.67-1.81,1.01-.44,2.1-.66,3.28-.66h2.01c1.17,0,2.27.22,3.28.66,1.01.44,1.9,1.04,2.67,1.81.77.76,1.37,1.65,1.81,2.66.44,1.01.66,2.1.66,3.27v17.14c0,1.17-.22,2.26-.66,3.27-.44,1.01-1.04,1.9-1.81,2.66-.77.76-1.66,1.37-2.67,1.81-1.01.44-2.1.66-3.28.66h-2.01Zm-3.33-8.37c0,.92.32,1.69.95,2.33.64.64,1.41.96,2.32.96h2.01c.91,0,1.69-.32,2.32-.96.64-.64.95-1.41.95-2.33v-17.2c0-.91-.32-1.69-.95-2.33-.64-.64-1.41-.96-2.32-.96h-2.01c-.91,0-1.69.32-2.32.96-.64.64-.95,1.41-.95,2.33v17.2Z"/>
        <path class="cls-1" d="m155.36,274.35c0,.46-.16.84-.46,1.15-.31.31-.69.46-1.15.46h-1.86c-.46,0-.84-.15-1.15-.46-.31-.31-.46-.69-.46-1.15v-31.01c0-.46.15-.84.46-1.15.31-.31.69-.46,1.15-.46h1.86c.46,0,.84.15,1.15.46.31.31.46.69.46,1.15v12.08c0,.46.06.69.2.71.13.02.28-.19.44-.61l5.43-12.37c.16-.42.46-.78.9-1.08.44-.29.89-.44,1.35-.44h2.35c.46,0,.77.15.95.44.18.29.19.65.02,1.08l-5.43,12.37c-.16.42-.24.92-.24,1.49s.1,1.07.29,1.49l7.24,15.94c.2.42.2.78.02,1.08-.18.29-.5.44-.95.44h-2.35c-.46,0-.91-.15-1.35-.44-.44-.29-.76-.65-.95-1.08l-4.35-9.64c-.2-.42-.42-.64-.68-.64s-.47.21-.64.64l-1.52,3.47c-.16.42-.31.94-.44,1.54-.13.6-.2,1.13-.2,1.59l-.1,2.93Z"/>
        <path class="cls-1" d="m178.8,275.41c-.31.31-.69.46-1.15.46h-1.86c-.46,0-.84-.15-1.15-.46-.31-.31-.46-.69-.46-1.15v-31.01c0-.46.15-.84.46-1.15s.69-.46,1.15-.46h1.86c.46,0,.84.15,1.15.46.31.31.46.69.46,1.15v31.01c0,.46-.15.84-.46,1.15Z"/>
        <path class="cls-1" d="m197.34,274.4c0,.46-.15.84-.46,1.15-.31.31-.69.46-1.15.46h-9.7c-.45,0-.83-.15-1.14-.47-.31-.31-.46-.69-.46-1.15v-31.05c0-.46.15-.84.46-1.15.31-.31.69-.47,1.14-.47h9.7c.46,0,.84.16,1.15.47.31.31.46.7.46,1.16v1.83c0,.46-.15.85-.46,1.16-.31.31-.69.47-1.15.47h-4.6c-.46,0-.84.15-1.15.46-.31.31-.46.69-.46,1.15v6.21c0,.46.15.84.46,1.15.31.31.69.46,1.15.46h4.6c.46,0,.84.15,1.15.46.31.31.46.69.46,1.15v1.86c0,.46-.15.84-.46,1.15-.31.31-.69.46-1.15.46h-4.6c-.46,0-.84.16-1.15.46-.31.31-.46.69-.46,1.15v6.75c0,.46.15.84.46,1.15s.69.46,1.15.46h4.6c.46,0,.84.15,1.15.46s.46.69.46,1.15v1.47Z"/>
        <path class="cls-1" d="m211.05,270.78h2.01c.88,0,1.63-.31,2.25-.93.62-.62.95-1.37.98-2.25-.03-1.08-.2-1.98-.51-2.71-.31-.73-.72-1.36-1.22-1.88-.51-.52-1.12-.98-1.83-1.37-.72-.39-1.48-.78-2.3-1.17-.85-.39-1.73-.85-2.64-1.37-.91-.52-1.76-1.17-2.54-1.96s-1.43-1.73-1.93-2.84c-.51-1.11-.76-2.46-.76-4.06,0-1.17.22-2.27.66-3.28.44-1.01,1.04-1.9,1.81-2.67.77-.77,1.65-1.37,2.66-1.81,1.01-.44,2.1-.66,3.28-.66h2.01c1.01,0,1.98.17,2.91.51.93.34,1.76.82,2.49,1.44.73.62,1.35,1.34,1.83,2.15.49.82.83,1.71,1.03,2.69.1.46,0,.84-.29,1.15-.29.31-.67.46-1.13.46h-1.86c-.46,0-.85-.17-1.17-.5-.33-.33-.6-.7-.83-1.09-.26-.53-.64-.95-1.15-1.27-.51-.31-1.08-.47-1.74-.47h-2.01c-.91,0-1.69.32-2.32.97-.64.65-.95,1.43-.95,2.36,0,.78.1,1.43.29,1.95.2.52.51.99.93,1.39.42.41.94.79,1.54,1.15.6.36,1.33.73,2.18,1.12.82.39,1.69.85,2.62,1.37.93.52,1.8,1.16,2.62,1.9.81.75,1.53,1.66,2.15,2.73.62,1.07,1.03,2.39,1.22,3.95.03.23.06.43.07.61.02.18.02.35.02.51v1.03c0,.16-.02.33-.05.49-.03.16-.07.33-.1.51-.03.18-.08.38-.15.61-.23.91-.6,1.75-1.1,2.51-.51.76-1.12,1.43-1.83,2-.72.57-1.52,1.01-2.4,1.32-.88.31-1.81.46-2.79.46h-2.01c-1.04,0-2.02-.17-2.93-.51-.91-.34-1.74-.82-2.47-1.44-.73-.62-1.35-1.34-1.83-2.15-.49-.81-.83-1.71-1.03-2.69-.1-.46,0-.84.29-1.15.29-.31.67-.46,1.13-.46h1.86c.46,0,.85.17,1.17.5.33.33.6.69.83,1.09.26.53.64.95,1.15,1.27.51.32,1.08.47,1.74.47h.15Z"/>
      </g>
    </g>
  </g>
</svg>